<?xml version="1.0" encoding="UTF-8" standalone="no"?>
<!DOCTYPE svg PUBLIC "-//W3C//DTD SVG 1.1//EN"
 "http://www.w3.org/Graphics/SVG/1.1/DTD/svg11.dtd">
<!-- Generated by graphviz version 2.38.0 (20140413.2041)
 -->
<!-- Title: automaton Pages: 1 -->
<svg width="184pt" height="533pt"
 viewBox="0.00 0.00 183.69 532.97" xmlns="http://www.w3.org/2000/svg" xmlns:xlink="http://www.w3.org/1999/xlink">
<g id="graph0" class="graph" transform="scale(1 1) rotate(0) translate(4 528.973)">
<title>automaton</title>
<polygon fill="white" stroke="none" points="-4,4 -4,-528.973 179.686,-528.973 179.686,4 -4,4"/>
<!-- start -->
<g id="node1" class="node"><title>start</title>
<text text-anchor="middle" x="68.5906" y="-503.273" font-family="Times,serif" font-size="14.00">start</text>
</g>
<!-- {q4, } -->
<g id="node2" class="node"><title>{q4, }</title>
<ellipse fill="none" stroke="black" cx="68.5906" cy="-418.176" rx="33.5952" ry="33.5952"/>
<text text-anchor="middle" x="68.5906" y="-414.476" font-family="Times,serif" font-size="14.00">{q4, }</text>
</g>
<!-- start&#45;&gt;{q4, } -->
<g id="edge1" class="edge"><title>start&#45;&gt;{q4, }</title>
<path fill="none" stroke="black" d="M68.5906,-488.825C68.5906,-481.133 68.5906,-471.68 68.5906,-462.246"/>
<polygon fill="black" stroke="black" points="72.0907,-462.103 68.5906,-452.103 65.0907,-462.103 72.0907,-462.103"/>
</g>
<!-- {} -->
<g id="node3" class="node"><title>{}</title>
<ellipse fill="none" stroke="black" cx="53.5906" cy="-19.4983" rx="19.4965" ry="19.4965"/>
<text text-anchor="middle" x="53.5906" y="-15.7983" font-family="Times,serif" font-size="14.00">{}</text>
</g>
<!-- {q4, }&#45;&gt;{} -->
<g id="edge9" class="edge"><title>{q4, }&#45;&gt;{}</title>
<path fill="none" stroke="black" d="M45.9432,-392.507C33.1394,-376.835 18.3726,-355.408 11.5906,-333.379 -19.987,-230.812 21.3149,-102.096 42.4811,-47.2416"/>
<polygon fill="black" stroke="black" points="45.7597,-48.4682 46.1769,-37.8816 39.2488,-45.8974 45.7597,-48.4682"/>
<text text-anchor="middle" x="6.59059" y="-207.988" font-family="Times,serif" font-size="14.00">b</text>
</g>
<!-- {q0, q1, } -->
<g id="node4" class="node"><title>{q0, q1, }</title>
<ellipse fill="none" stroke="black" cx="68.5906" cy="-285.284" rx="48.1917" ry="48.1917"/>
<text text-anchor="middle" x="68.5906" y="-281.584" font-family="Times,serif" font-size="14.00">{q0, q1, }</text>
</g>
<!-- {q4, }&#45;&gt;{q0, q1, } -->
<g id="edge8" class="edge"><title>{q4, }&#45;&gt;{q0, q1, }</title>
<path fill="none" stroke="black" d="M68.5906,-384.147C68.5906,-371.956 68.5906,-357.757 68.5906,-344.019"/>
<polygon fill="black" stroke="black" points="72.0907,-343.643 68.5906,-333.643 65.0907,-343.643 72.0907,-343.643"/>
<text text-anchor="middle" x="72.0906" y="-355.179" font-family="Times,serif" font-size="14.00">a</text>
</g>
<!-- {}&#45;&gt;{} -->
<g id="edge2" class="edge"><title>{}&#45;&gt;{}</title>
<path fill="none" stroke="black" d="M72.8842,-23.5014C82.5062,-24.0553 91.0889,-22.7209 91.0889,-19.4983 91.0889,-17.5345 87.9018,-16.2718 83.2346,-15.7104"/>
<polygon fill="black" stroke="black" points="82.9549,-12.2039 72.8842,-15.4951 82.8092,-19.2024 82.9549,-12.2039"/>
<text text-anchor="middle" x="94.5889" y="-15.7983" font-family="Times,serif" font-size="14.00">a</text>
</g>
<!-- {}&#45;&gt;{} -->
<g id="edge3" class="edge"><title>{}&#45;&gt;{}</title>
<path fill="none" stroke="black" d="M72.0676,-26.1123C89.7669,-29.6522 109.089,-27.4475 109.089,-19.4983 109.089,-13.0395 96.3333,-10.3731 82.0565,-11.499"/>
<polygon fill="black" stroke="black" points="81.492,-8.04366 72.0676,-12.8843 82.4537,-14.9773 81.492,-8.04366"/>
<text text-anchor="middle" x="113.089" y="-15.7983" font-family="Times,serif" font-size="14.00">b</text>
</g>
<!-- {q0, q1, }&#45;&gt;{} -->
<g id="edge5" class="edge"><title>{q0, q1, }&#45;&gt;{}</title>
<path fill="none" stroke="black" d="M65.6261,-236.888C64.6371,-220.796 63.5446,-202.711 62.5906,-186.188 59.8304,-138.386 56.8605,-82.8108 55.1168,-49.7069"/>
<polygon fill="black" stroke="black" points="58.5944,-49.188 54.5745,-39.3855 51.6041,-49.5554 58.5944,-49.188"/>
<text text-anchor="middle" x="66.5906" y="-134.392" font-family="Times,serif" font-size="14.00">b</text>
</g>
<!-- {q2, q3, } -->
<g id="node5" class="node"><title>{q2, q3, }</title>
<ellipse fill="none" stroke="black" cx="127.591" cy="-138.092" rx="48.1917" ry="48.1917"/>
<text text-anchor="middle" x="127.591" y="-134.392" font-family="Times,serif" font-size="14.00">{q2, q3, }</text>
</g>
<!-- {q0, q1, }&#45;&gt;{q2, q3, } -->
<g id="edge4" class="edge"><title>{q0, q1, }&#45;&gt;{q2, q3, }</title>
<path fill="none" stroke="black" d="M86.4526,-240.327C92.5756,-225.26 99.4952,-208.231 105.888,-192.499"/>
<polygon fill="black" stroke="black" points="109.267,-193.481 109.789,-182.899 102.782,-190.846 109.267,-193.481"/>
<text text-anchor="middle" x="103.091" y="-207.988" font-family="Times,serif" font-size="14.00">a</text>
</g>
<!-- {q2, q3, }&#45;&gt;{q4, } -->
<g id="edge7" class="edge"><title>{q2, q3, }&#45;&gt;{q4, }</title>
<path fill="none" stroke="black" d="M134.547,-185.805C138.786,-225.914 140.828,-284.776 125.591,-333.379 119.827,-351.765 108.564,-369.754 97.5614,-384.322"/>
<polygon fill="black" stroke="black" points="94.5782,-382.454 91.1569,-392.482 100.085,-386.777 94.5782,-382.454"/>
<text text-anchor="middle" x="141.591" y="-281.584" font-family="Times,serif" font-size="14.00">b</text>
</g>
<!-- {q2, q3, }&#45;&gt;{} -->
<g id="edge6" class="edge"><title>{q2, q3, }&#45;&gt;{}</title>
<path fill="none" stroke="black" d="M102.124,-96.9672C91.1834,-79.7293 78.748,-60.1362 69.2039,-45.0984"/>
<polygon fill="black" stroke="black" points="71.9878,-42.9533 63.6741,-36.3858 66.0777,-46.7044 71.9878,-42.9533"/>
<text text-anchor="middle" x="89.0906" y="-60.7965" font-family="Times,serif" font-size="14.00">a</text>
</g>
</g>
</svg>
