<?xml version="1.0" encoding="UTF-8" standalone="no"?>
<!DOCTYPE svg PUBLIC "-//W3C//DTD SVG 1.1//EN"
 "http://www.w3.org/Graphics/SVG/1.1/DTD/svg11.dtd">
<!-- Generated by graphviz version 2.38.0 (20140413.2041)
 -->
<!-- Title: automaton Pages: 1 -->
<svg width="265pt" height="729pt"
 viewBox="0.00 0.00 265.00 729.00" xmlns="http://www.w3.org/2000/svg" xmlns:xlink="http://www.w3.org/1999/xlink">
<g id="graph0" class="graph" transform="scale(1 1) rotate(0) translate(4 724.997)">
<title>automaton</title>
<polygon fill="white" stroke="none" points="-4,4 -4,-724.997 261,-724.997 261,4 -4,4"/>
<!-- start -->
<g id="node1" class="node"><title>start</title>
<text text-anchor="middle" x="215" y="-699.297" font-family="Times,serif" font-size="14.00">start</text>
</g>
<!-- 0 -->
<g id="node2" class="node"><title>0</title>
<ellipse fill="none" stroke="black" cx="215" cy="-629.997" rx="18" ry="18"/>
<text text-anchor="middle" x="215" y="-626.297" font-family="Times,serif" font-size="14.00">0</text>
</g>
<!-- start&#45;&gt;0 -->
<g id="edge1" class="edge"><title>start&#45;&gt;0</title>
<path fill="none" stroke="black" d="M215,-684.809C215,-676.786 215,-667.044 215,-658.066"/>
<polygon fill="black" stroke="black" points="218.5,-658.025 215,-648.025 211.5,-658.025 218.5,-658.025"/>
</g>
<!-- 2 -->
<g id="node3" class="node"><title>2</title>
<ellipse fill="none" stroke="black" cx="146" cy="-542.997" rx="18" ry="18"/>
<text text-anchor="middle" x="146" y="-539.297" font-family="Times,serif" font-size="14.00">2</text>
</g>
<!-- 0&#45;&gt;2 -->
<g id="edge2" class="edge"><title>0&#45;&gt;2</title>
<path fill="none" stroke="black" d="M203.914,-615.34C193.05,-601.956 176.32,-581.347 163.63,-565.715"/>
<polygon fill="black" stroke="black" points="166.078,-563.177 157.059,-557.619 160.644,-567.589 166.078,-563.177"/>
<text text-anchor="middle" x="187.5" y="-582.797" font-family="Times,serif" font-size="14.00">a</text>
</g>
<!-- 8 -->
<g id="node4" class="node"><title>8</title>
<ellipse fill="none" stroke="black" cx="148" cy="-105" rx="18" ry="18"/>
<text text-anchor="middle" x="148" y="-101.3" font-family="Times,serif" font-size="14.00">8</text>
</g>
<!-- 0&#45;&gt;8 -->
<g id="edge3" class="edge"><title>0&#45;&gt;8</title>
<path fill="none" stroke="black" d="M224.652,-614.649C234.704,-598.288 249,-570.38 249,-543.997 249,-543.997 249,-543.997 249,-234.5 249,-227.834 194.569,-161.703 165.624,-127.008"/>
<polygon fill="black" stroke="black" points="168.293,-124.745 159.195,-119.317 162.922,-129.234 168.293,-124.745"/>
<text text-anchor="middle" x="253" y="-363.798" font-family="Times,serif" font-size="14.00">b</text>
</g>
<!-- 3 -->
<g id="node5" class="node"><title>3</title>
<ellipse fill="none" stroke="black" cx="146" cy="-455.997" rx="18" ry="18"/>
<text text-anchor="middle" x="146" y="-452.297" font-family="Times,serif" font-size="14.00">3</text>
</g>
<!-- 2&#45;&gt;3 -->
<g id="edge4" class="edge"><title>2&#45;&gt;3</title>
<path fill="none" stroke="black" d="M146,-524.796C146,-513.159 146,-497.544 146,-484.233"/>
<polygon fill="black" stroke="black" points="149.5,-484.172 146,-474.172 142.5,-484.172 149.5,-484.172"/>
<text text-anchor="middle" x="149.5" y="-495.797" font-family="Times,serif" font-size="14.00">a</text>
</g>
<!-- 4 -->
<g id="node6" class="node"><title>4</title>
<ellipse fill="none" stroke="black" cx="93" cy="-367.498" rx="18" ry="18"/>
<text text-anchor="middle" x="93" y="-363.798" font-family="Times,serif" font-size="14.00">4</text>
</g>
<!-- 2&#45;&gt;4 -->
<g id="edge5" class="edge"><title>2&#45;&gt;4</title>
<path fill="none" stroke="black" d="M136.842,-527.451C128.825,-514.06 117.474,-493.392 111,-473.997 102.394,-448.215 97.746,-417.449 95.3425,-395.815"/>
<polygon fill="black" stroke="black" points="98.8073,-395.291 94.3083,-385.699 91.8436,-396.003 98.8073,-395.291"/>
<text text-anchor="middle" x="115" y="-452.297" font-family="Times,serif" font-size="14.00">b</text>
</g>
<!-- 5 -->
<g id="node8" class="node"><title>5</title>
<ellipse fill="none" stroke="black" cx="148" cy="-18" rx="18" ry="18"/>
<text text-anchor="middle" x="148" y="-14.3" font-family="Times,serif" font-size="14.00">5</text>
</g>
<!-- 8&#45;&gt;5 -->
<g id="edge17" class="edge"><title>8&#45;&gt;5</title>
<path fill="none" stroke="black" d="M148,-86.799C148,-75.1626 148,-59.5479 148,-46.2368"/>
<polygon fill="black" stroke="black" points="151.5,-46.1754 148,-36.1754 144.5,-46.1755 151.5,-46.1754"/>
<text text-anchor="middle" x="152" y="-57.8" font-family="Times,serif" font-size="14.00">b</text>
</g>
<!-- 9 -->
<g id="node11" class="node"><title>9</title>
<ellipse fill="none" stroke="black" cx="43" cy="-18" rx="18" ry="18"/>
<text text-anchor="middle" x="43" y="-14.3" font-family="Times,serif" font-size="14.00">9</text>
</g>
<!-- 8&#45;&gt;9 -->
<g id="edge16" class="edge"><title>8&#45;&gt;9</title>
<path fill="none" stroke="black" d="M134.273,-92.8877C116.587,-78.5702 85.6358,-53.5147 64.7357,-36.5955"/>
<polygon fill="black" stroke="black" points="66.705,-33.6866 56.7303,-30.115 62.3005,-39.1274 66.705,-33.6866"/>
<text text-anchor="middle" x="104.5" y="-57.8" font-family="Times,serif" font-size="14.00">a</text>
</g>
<!-- 3&#45;&gt;4 -->
<g id="edge6" class="edge"><title>3&#45;&gt;4</title>
<path fill="none" stroke="black" d="M137.009,-440.323C128.938,-427.151 116.945,-407.578 107.516,-392.19"/>
<polygon fill="black" stroke="black" points="110.244,-389.942 102.035,-383.244 104.275,-393.599 110.244,-389.942"/>
<text text-anchor="middle" x="127.5" y="-408.797" font-family="Times,serif" font-size="14.00">a</text>
</g>
<!-- 10 -->
<g id="node7" class="node"><title>10</title>
<ellipse fill="none" stroke="black" cx="156" cy="-367.498" rx="19.4965" ry="19.4965"/>
<text text-anchor="middle" x="156" y="-363.798" font-family="Times,serif" font-size="14.00">10</text>
</g>
<!-- 3&#45;&gt;10 -->
<g id="edge7" class="edge"><title>3&#45;&gt;10</title>
<path fill="none" stroke="black" d="M147.976,-437.907C149.314,-426.33 151.116,-410.747 152.673,-397.28"/>
<polygon fill="black" stroke="black" points="156.184,-397.385 153.855,-387.049 149.23,-396.581 156.184,-397.385"/>
<text text-anchor="middle" x="155" y="-408.797" font-family="Times,serif" font-size="14.00">b</text>
</g>
<!-- 4&#45;&gt;5 -->
<g id="edge8" class="edge"><title>4&#45;&gt;5</title>
<path fill="none" stroke="black" d="M93.0743,-349.205C93.6189,-304.93 97.3425,-184.133 121,-87 124.581,-72.2955 130.678,-56.5485 136.172,-43.9148"/>
<polygon fill="black" stroke="black" points="139.483,-45.0855 140.39,-34.5296 133.098,-42.216 139.483,-45.0855"/>
<text text-anchor="middle" x="107.5" y="-188.3" font-family="Times,serif" font-size="14.00">a</text>
</g>
<!-- 6 -->
<g id="node9" class="node"><title>6</title>
<ellipse fill="none" stroke="black" cx="138" cy="-279" rx="18" ry="18"/>
<text text-anchor="middle" x="138" y="-275.3" font-family="Times,serif" font-size="14.00">6</text>
</g>
<!-- 4&#45;&gt;6 -->
<g id="edge9" class="edge"><title>4&#45;&gt;6</title>
<path fill="none" stroke="black" d="M101.045,-351.034C107.764,-338.119 117.466,-319.471 125.243,-304.522"/>
<polygon fill="black" stroke="black" points="128.514,-305.817 130.025,-295.33 122.304,-302.586 128.514,-305.817"/>
<text text-anchor="middle" x="123" y="-318.8" font-family="Times,serif" font-size="14.00">b</text>
</g>
<!-- 10&#45;&gt;6 -->
<g id="edge21" class="edge"><title>10&#45;&gt;6</title>
<path fill="none" stroke="black" d="M152.183,-348.154C149.691,-336.18 146.395,-320.343 143.608,-306.948"/>
<polygon fill="black" stroke="black" points="146.971,-305.928 141.507,-296.851 140.117,-307.354 146.971,-305.928"/>
<text text-anchor="middle" x="152" y="-318.8" font-family="Times,serif" font-size="14.00">b</text>
</g>
<!-- 7 -->
<g id="node10" class="node"><title>7</title>
<ellipse fill="none" stroke="black" cx="147" cy="-192" rx="18" ry="18"/>
<text text-anchor="middle" x="147" y="-188.3" font-family="Times,serif" font-size="14.00">7</text>
</g>
<!-- 10&#45;&gt;7 -->
<g id="edge20" class="edge"><title>10&#45;&gt;7</title>
<path fill="none" stroke="black" d="M159.943,-348.149C163.924,-327.062 168.961,-291.442 165,-261 163.166,-246.903 159.278,-231.566 155.583,-219.032"/>
<polygon fill="black" stroke="black" points="158.86,-217.78 152.575,-209.251 152.169,-219.838 158.86,-217.78"/>
<text text-anchor="middle" x="169.5" y="-275.3" font-family="Times,serif" font-size="14.00">a</text>
</g>
<!-- 5&#45;&gt;5 -->
<g id="edge10" class="edge"><title>5&#45;&gt;5</title>
<path fill="none" stroke="black" d="M165.782,-21.775C175.315,-22.4165 184,-21.1582 184,-18 184,-16.0755 180.775,-14.8564 176.098,-14.3429"/>
<polygon fill="black" stroke="black" points="175.821,-10.8396 165.782,-14.225 175.741,-17.8391 175.821,-10.8396"/>
<text text-anchor="middle" x="187.5" y="-14.3" font-family="Times,serif" font-size="14.00">a</text>
</g>
<!-- 5&#45;&gt;5 -->
<g id="edge11" class="edge"><title>5&#45;&gt;5</title>
<path fill="none" stroke="black" d="M165.142,-24.1447C182.585,-27.7592 202,-25.7109 202,-18 202,-11.7951 189.428,-9.25695 175.429,-10.3855"/>
<polygon fill="black" stroke="black" points="174.546,-6.97599 165.142,-11.8553 175.536,-13.9056 174.546,-6.97599"/>
<text text-anchor="middle" x="206" y="-14.3" font-family="Times,serif" font-size="14.00">b</text>
</g>
<!-- 6&#45;&gt;5 -->
<g id="edge13" class="edge"><title>6&#45;&gt;5</title>
<path fill="none" stroke="black" d="M148.005,-263.968C156.773,-250.761 168.894,-230.065 174,-210 187.483,-157.02 185.27,-140.695 175,-87 172.138,-72.0366 166.031,-56.1683 160.348,-43.5273"/>
<polygon fill="black" stroke="black" points="163.369,-41.7257 155.952,-34.1604 157.032,-44.7 163.369,-41.7257"/>
<text text-anchor="middle" x="187" y="-144.8" font-family="Times,serif" font-size="14.00">b</text>
</g>
<!-- 6&#45;&gt;7 -->
<g id="edge12" class="edge"><title>6&#45;&gt;7</title>
<path fill="none" stroke="black" d="M139.821,-260.799C141.053,-249.163 142.707,-233.548 144.116,-220.237"/>
<polygon fill="black" stroke="black" points="147.609,-220.488 145.181,-210.175 140.648,-219.751 147.609,-220.488"/>
<text text-anchor="middle" x="146.5" y="-231.8" font-family="Times,serif" font-size="14.00">a</text>
</g>
<!-- 7&#45;&gt;8 -->
<g id="edge14" class="edge"><title>7&#45;&gt;8</title>
<path fill="none" stroke="black" d="M136.515,-176.818C130.489,-166.947 124.711,-153.386 128,-141 129.111,-136.815 130.854,-132.608 132.858,-128.635"/>
<polygon fill="black" stroke="black" points="135.921,-130.328 137.833,-119.907 129.84,-126.861 135.921,-130.328"/>
<text text-anchor="middle" x="131.5" y="-144.8" font-family="Times,serif" font-size="14.00">a</text>
</g>
<!-- 7&#45;&gt;8 -->
<g id="edge15" class="edge"><title>7&#45;&gt;8</title>
<path fill="none" stroke="black" d="M147.202,-173.799C147.339,-162.163 147.523,-146.548 147.68,-133.237"/>
<polygon fill="black" stroke="black" points="151.18,-133.216 147.798,-123.175 144.18,-133.134 151.18,-133.216"/>
<text text-anchor="middle" x="151" y="-144.8" font-family="Times,serif" font-size="14.00">b</text>
</g>
<!-- 9&#45;&gt;4 -->
<g id="edge18" class="edge"><title>9&#45;&gt;4</title>
<path fill="none" stroke="black" d="M31.4768,-32.0947C18.7397,-47.96 0,-76.0512 0,-104 0,-280 0,-280 0,-280 0,-316.885 39.7079,-342.498 67.2313,-355.822"/>
<polygon fill="black" stroke="black" points="65.8252,-359.028 76.3735,-360.021 68.7467,-352.666 65.8252,-359.028"/>
<text text-anchor="middle" x="3.5" y="-188.3" font-family="Times,serif" font-size="14.00">a</text>
</g>
<!-- 9&#45;&gt;4 -->
<g id="edge19" class="edge"><title>9&#45;&gt;4</title>
<path fill="none" stroke="black" d="M43,-36.2564C43,-53.4297 43,-80.5365 43,-104 43,-280 43,-280 43,-280 43,-305.406 59.3674,-330.055 73.3732,-346.497"/>
<polygon fill="black" stroke="black" points="71.0988,-349.203 80.3829,-354.307 76.3084,-344.527 71.0988,-349.203"/>
<text text-anchor="middle" x="47" y="-188.3" font-family="Times,serif" font-size="14.00">b</text>
</g>
</g>
</svg>
