<?xml version="1.0" encoding="UTF-8" standalone="no"?>
<!DOCTYPE svg PUBLIC "-//W3C//DTD SVG 1.1//EN"
 "http://www.w3.org/Graphics/SVG/1.1/DTD/svg11.dtd">
<!-- Generated by graphviz version 2.38.0 (20140413.2041)
 -->
<!-- Title: automaton Pages: 1 -->
<svg width="103pt" height="486pt"
 viewBox="0.00 0.00 103.15 486.48" xmlns="http://www.w3.org/2000/svg" xmlns:xlink="http://www.w3.org/1999/xlink">
<g id="graph0" class="graph" transform="scale(1 1) rotate(0) translate(4 482.482)">
<title>automaton</title>
<polygon fill="white" stroke="none" points="-4,4 -4,-482.482 99.1482,-482.482 99.1482,4 -4,4"/>
<!-- start -->
<g id="node1" class="node"><title>start</title>
<text text-anchor="middle" x="68.1482" y="-456.782" font-family="Times,serif" font-size="14.00">start</text>
</g>
<!-- q0 -->
<g id="node2" class="node"><title>q0</title>
<ellipse fill="none" stroke="black" cx="68.1482" cy="-385.334" rx="20.2975" ry="20.2975"/>
<text text-anchor="middle" x="68.1482" y="-381.634" font-family="Times,serif" font-size="14.00">q0</text>
</g>
<!-- start&#45;&gt;q0 -->
<g id="edge1" class="edge"><title>start&#45;&gt;q0</title>
<path fill="none" stroke="black" d="M68.1482,-442.147C68.1482,-434.252 68.1482,-424.685 68.1482,-415.718"/>
<polygon fill="black" stroke="black" points="71.6483,-415.604 68.1482,-405.604 64.6483,-415.604 71.6483,-415.604"/>
</g>
<!-- q1 -->
<g id="node3" class="node"><title>q1</title>
<ellipse fill="none" stroke="black" cx="26.1482" cy="-294.037" rx="20.2975" ry="20.2975"/>
<text text-anchor="middle" x="26.1482" y="-290.337" font-family="Times,serif" font-size="14.00">q1</text>
</g>
<!-- q0&#45;&gt;q1 -->
<g id="edge2" class="edge"><title>q0&#45;&gt;q1</title>
<path fill="none" stroke="black" d="M59.8504,-366.692C53.8678,-353.972 45.6821,-336.569 38.8762,-322.098"/>
<polygon fill="black" stroke="black" points="41.8522,-320.202 34.4288,-312.643 35.5179,-323.182 41.8522,-320.202"/>
<text text-anchor="middle" x="53.6482" y="-335.986" font-family="Times,serif" font-size="14.00">ε</text>
</g>
<!-- q2 -->
<g id="node4" class="node"><title>q2</title>
<ellipse fill="none" stroke="black" cx="20.1482" cy="-202.741" rx="20.2975" ry="20.2975"/>
<text text-anchor="middle" x="20.1482" y="-199.041" font-family="Times,serif" font-size="14.00">q2</text>
</g>
<!-- q1&#45;&gt;q2 -->
<g id="edge3" class="edge"><title>q1&#45;&gt;q2</title>
<path fill="none" stroke="black" d="M24.8463,-273.661C24.0522,-261.843 23.0214,-246.502 22.1277,-233.202"/>
<polygon fill="black" stroke="black" points="25.6102,-232.822 21.4476,-223.079 18.626,-233.291 25.6102,-232.822"/>
<text text-anchor="middle" x="27.6482" y="-244.689" font-family="Times,serif" font-size="14.00">a</text>
</g>
<!-- q3 -->
<g id="node5" class="node"><title>q3</title>
<ellipse fill="none" stroke="black" cx="26.1482" cy="-111.445" rx="20.2975" ry="20.2975"/>
<text text-anchor="middle" x="26.1482" y="-107.745" font-family="Times,serif" font-size="14.00">q3</text>
</g>
<!-- q2&#45;&gt;q3 -->
<g id="edge4" class="edge"><title>q2&#45;&gt;q3</title>
<path fill="none" stroke="black" d="M21.4501,-182.365C22.2442,-170.546 23.275,-155.205 24.1687,-141.905"/>
<polygon fill="black" stroke="black" points="27.6705,-141.995 24.8488,-131.783 20.6862,-141.526 27.6705,-141.995"/>
<text text-anchor="middle" x="27.6482" y="-153.393" font-family="Times,serif" font-size="14.00">ε</text>
</g>
<!-- q4 -->
<g id="node6" class="node"><title>q4</title>
<ellipse fill="none" stroke="black" cx="58.1482" cy="-20.1482" rx="20.2975" ry="20.2975"/>
<text text-anchor="middle" x="58.1482" y="-16.4482" font-family="Times,serif" font-size="14.00">q4</text>
</g>
<!-- q3&#45;&gt;q4 -->
<g id="edge5" class="edge"><title>q3&#45;&gt;q4</title>
<path fill="none" stroke="black" d="M32.7786,-91.9424C37.2274,-79.5279 43.1684,-62.9495 48.1828,-48.9567"/>
<polygon fill="black" stroke="black" points="51.557,-49.9158 51.6358,-39.3213 44.9674,-47.5543 51.557,-49.9158"/>
<text text-anchor="middle" x="48.1482" y="-62.0964" font-family="Times,serif" font-size="14.00">b</text>
</g>
<!-- q4&#45;&gt;q0 -->
<g id="edge6" class="edge"><title>q4&#45;&gt;q0</title>
<path fill="none" stroke="black" d="M64.142,-39.743C69.3782,-57.6553 76.1482,-85.6156 76.1482,-110.445 76.1482,-295.037 76.1482,-295.037 76.1482,-295.037 76.1482,-315.145 74.1109,-337.699 72.0925,-355.109"/>
<polygon fill="black" stroke="black" points="68.5963,-354.866 70.8566,-365.217 75.5445,-355.716 68.5963,-354.866"/>
<text text-anchor="middle" x="79.6482" y="-199.041" font-family="Times,serif" font-size="14.00">a</text>
</g>
</g>
</svg>
