<?xml version="1.0" encoding="UTF-8" standalone="no"?>
<!DOCTYPE svg PUBLIC "-//W3C//DTD SVG 1.1//EN"
 "http://www.w3.org/Graphics/SVG/1.1/DTD/svg11.dtd">
<!-- Generated by graphviz version 2.38.0 (20140413.2041)
 -->
<!-- Title: automaton Pages: 1 -->
<svg width="276pt" height="487pt"
 viewBox="0.00 0.00 276.14 487.27" xmlns="http://www.w3.org/2000/svg" xmlns:xlink="http://www.w3.org/1999/xlink">
<g id="graph0" class="graph" transform="scale(1 1) rotate(0) translate(4 483.271)">
<title>automaton</title>
<polygon fill="white" stroke="none" points="-4,4 -4,-483.271 272.142,-483.271 272.142,4 -4,4"/>
<!-- start -->
<g id="node1" class="node"><title>start</title>
<text text-anchor="middle" x="27" y="-266.635" font-family="Times,serif" font-size="14.00">start</text>
</g>
<!-- {q3, } -->
<g id="node2" class="node"><title>{q3, }</title>
<ellipse fill="none" stroke="black" cx="134" cy="-123.794" rx="33.5952" ry="33.5952"/>
<text text-anchor="middle" x="134" y="-120.094" font-family="Times,serif" font-size="14.00">{q3, }</text>
</g>
<!-- start&#45;&gt;{q3, } -->
<g id="edge1" class="edge"><title>start&#45;&gt;{q3, }</title>
<path fill="none" stroke="black" d="M36.1961,-252.097C43.0691,-239.667 52.9715,-222.669 63,-208.591 75.7181,-190.736 91.3315,-172.019 104.675,-156.814"/>
<polygon fill="black" stroke="black" points="107.405,-159.012 111.419,-149.207 102.166,-154.368 107.405,-159.012"/>
</g>
<!-- {} -->
<g id="node3" class="node"><title>{}</title>
<ellipse fill="none" stroke="black" cx="165" cy="-19.4983" rx="19.4965" ry="19.4965"/>
<text text-anchor="middle" x="165" y="-15.7983" font-family="Times,serif" font-size="14.00">{}</text>
</g>
<!-- {q3, }&#45;&gt;{} -->
<g id="edge11" class="edge"><title>{q3, }&#45;&gt;{}</title>
<path fill="none" stroke="black" d="M149.661,-93.5799C152.843,-86.6616 155.865,-79.197 158,-71.9965 160.127,-64.8233 161.61,-56.8938 162.644,-49.4507"/>
<polygon fill="black" stroke="black" points="166.136,-49.7217 163.826,-39.3818 159.184,-48.9054 166.136,-49.7217"/>
<text text-anchor="middle" x="165.5" y="-60.7965" font-family="Times,serif" font-size="14.00">a</text>
</g>
<!-- {q3, }&#45;&gt;{} -->
<g id="edge12" class="edge"><title>{q3, }&#45;&gt;{}</title>
<path fill="none" stroke="black" d="M120.341,-92.6734C117.055,-81.1198 115.802,-68.0625 121,-56.9965 125.004,-48.4738 132.083,-41.2552 139.409,-35.5447"/>
<polygon fill="black" stroke="black" points="141.779,-38.1571 147.952,-29.5461 137.756,-32.4283 141.779,-38.1571"/>
<text text-anchor="middle" x="125" y="-60.7965" font-family="Times,serif" font-size="14.00">b</text>
</g>
<!-- {q3, }&#45;&gt;{} -->
<g id="edge13" class="edge"><title>{q3, }&#45;&gt;{}</title>
<path fill="none" stroke="black" d="M142.947,-90.9306C146.047,-80.1321 149.599,-68.0167 153,-56.9965 153.915,-54.0329 154.893,-50.9416 155.882,-47.867"/>
<polygon fill="black" stroke="black" points="159.236,-48.8705 159.01,-38.2781 152.581,-46.6994 159.236,-48.8705"/>
<text text-anchor="middle" x="157.5" y="-60.7965" font-family="Times,serif" font-size="14.00">c</text>
</g>
<!-- {}&#45;&gt;{} -->
<g id="edge2" class="edge"><title>{}&#45;&gt;{}</title>
<path fill="none" stroke="black" d="M184.678,-22.1811C194.143,-22.5123 202.498,-21.6181 202.498,-19.4983 202.498,-18.2065 199.396,-17.3699 194.83,-16.9883"/>
<polygon fill="black" stroke="black" points="194.736,-13.4862 184.678,-16.8154 194.617,-20.4852 194.736,-13.4862"/>
<text text-anchor="middle" x="205.998" y="-15.7983" font-family="Times,serif" font-size="14.00">a</text>
</g>
<!-- {}&#45;&gt;{} -->
<g id="edge3" class="edge"><title>{}&#45;&gt;{}</title>
<path fill="none" stroke="black" d="M184.052,-23.9828C201.592,-26.2353 220.498,-24.7405 220.498,-19.4983 220.498,-15.2799 208.256,-13.4881 194.334,-14.1228"/>
<polygon fill="black" stroke="black" points="193.712,-10.6635 184.052,-15.0137 194.316,-17.6373 193.712,-10.6635"/>
<text text-anchor="middle" x="224.498" y="-15.7983" font-family="Times,serif" font-size="14.00">b</text>
</g>
<!-- {}&#45;&gt;{} -->
<g id="edge4" class="edge"><title>{}&#45;&gt;{}</title>
<path fill="none" stroke="black" d="M183.825,-25.1379C208.592,-29.9719 238.498,-28.092 238.498,-19.4983 238.498,-12.0459 216.008,-9.64241 193.883,-12.2879"/>
<polygon fill="black" stroke="black" points="193.166,-8.85742 183.825,-13.8586 194.246,-15.7736 193.166,-8.85742"/>
<text text-anchor="middle" x="241.998" y="-15.7983" font-family="Times,serif" font-size="14.00">c</text>
</g>
<!-- {q0, q1, } -->
<g id="node4" class="node"><title>{q0, q1, }</title>
<ellipse fill="none" stroke="black" cx="164" cy="-431.175" rx="48.1917" ry="48.1917"/>
<text text-anchor="middle" x="164" y="-427.475" font-family="Times,serif" font-size="14.00">{q0, q1, }</text>
</g>
<!-- {q0, q1, }&#45;&gt;{} -->
<g id="edge7" class="edge"><title>{q0, q1, }&#45;&gt;{}</title>
<path fill="none" stroke="black" d="M202.23,-401.557C222.366,-384.011 245.093,-359.653 256,-332.08 297.443,-227.308 218.648,-96.1399 182.146,-43.711"/>
<polygon fill="black" stroke="black" points="184.907,-41.5544 176.267,-35.4228 179.198,-45.6042 184.907,-41.5544"/>
<text text-anchor="middle" x="258.5" y="-179.391" font-family="Times,serif" font-size="14.00">c</text>
</g>
<!-- {q0, q1, q2, } -->
<g id="node5" class="node"><title>{q0, q1, q2, }</title>
<ellipse fill="none" stroke="black" cx="134" cy="-270.335" rx="61.99" ry="61.99"/>
<text text-anchor="middle" x="134" y="-266.635" font-family="Times,serif" font-size="14.00">{q0, q1, q2, }</text>
</g>
<!-- {q0, q1, }&#45;&gt;{q0, q1, q2, } -->
<g id="edge5" class="edge"><title>{q0, q1, }&#45;&gt;{q0, q1, q2, }</title>
<path fill="none" stroke="black" d="M143.741,-387.459C141.009,-380.136 138.6,-372.494 137,-365.08 135.423,-357.775 134.316,-350.077 133.559,-342.361"/>
<polygon fill="black" stroke="black" points="137.036,-341.932 132.758,-332.24 130.058,-342.485 137.036,-341.932"/>
<text text-anchor="middle" x="140.5" y="-353.88" font-family="Times,serif" font-size="14.00">a</text>
</g>
<!-- {q0, q1, }&#45;&gt;{q0, q1, q2, } -->
<g id="edge6" class="edge"><title>{q0, q1, }&#45;&gt;{q0, q1, q2, }</title>
<path fill="none" stroke="black" d="M155.242,-383.805C152.713,-370.413 149.895,-355.495 147.16,-341.015"/>
<polygon fill="black" stroke="black" points="150.58,-340.262 145.285,-331.085 143.702,-341.561 150.58,-340.262"/>
<text text-anchor="middle" x="156" y="-353.88" font-family="Times,serif" font-size="14.00">b</text>
</g>
<!-- {q0, q1, q2, }&#45;&gt;{q3, } -->
<g id="edge10" class="edge"><title>{q0, q1, q2, }&#45;&gt;{q3, }</title>
<path fill="none" stroke="black" d="M134,-208.455C134,-194.833 134,-180.657 134,-167.929"/>
<polygon fill="black" stroke="black" points="137.5,-167.622 134,-157.622 130.5,-167.622 137.5,-167.622"/>
<text text-anchor="middle" x="137.5" y="-179.391" font-family="Times,serif" font-size="14.00">c</text>
</g>
<!-- {q0, q1, q2, }&#45;&gt;{q0, q1, q2, } -->
<g id="edge8" class="edge"><title>{q0, q1, q2, }&#45;&gt;{q0, q1, q2, }</title>
<path fill="none" stroke="black" d="M195.522,-277.894C206.268,-276.886 213.745,-274.366 213.745,-270.335 213.745,-267.753 210.676,-265.79 205.646,-264.449"/>
<polygon fill="black" stroke="black" points="205.958,-260.953 195.522,-262.776 204.818,-267.859 205.958,-260.953"/>
<text text-anchor="middle" x="217.245" y="-266.635" font-family="Times,serif" font-size="14.00">a</text>
</g>
<!-- {q0, q1, q2, }&#45;&gt;{q0, q1, q2, } -->
<g id="edge9" class="edge"><title>{q0, q1, q2, }&#45;&gt;{q0, q1, q2, }</title>
<path fill="none" stroke="black" d="M193.652,-286.451C214.681,-286.709 231.745,-281.337 231.745,-270.335 231.745,-261.224 220.043,-255.974 204.077,-254.585"/>
<polygon fill="black" stroke="black" points="203.769,-251.072 193.652,-254.219 203.523,-258.068 203.769,-251.072"/>
<text text-anchor="middle" x="235.745" y="-266.635" font-family="Times,serif" font-size="14.00">b</text>
</g>
</g>
</svg>
