<?xml version="1.0" encoding="UTF-8" standalone="no"?>
<!DOCTYPE svg PUBLIC "-//W3C//DTD SVG 1.1//EN"
 "http://www.w3.org/Graphics/SVG/1.1/DTD/svg11.dtd">
<!-- Generated by graphviz version 2.38.0 (20140413.2041)
 -->
<!-- Title: automaton Pages: 1 -->
<svg width="62pt" height="677pt"
 viewBox="0.00 0.00 62.00 677.07" xmlns="http://www.w3.org/2000/svg" xmlns:xlink="http://www.w3.org/1999/xlink">
<g id="graph0" class="graph" transform="scale(1 1) rotate(0) translate(4 673.075)">
<title>automaton</title>
<polygon fill="white" stroke="none" points="-4,4 -4,-673.075 58,-673.075 58,4 -4,4"/>
<!-- start -->
<g id="node1" class="node"><title>start</title>
<text text-anchor="middle" x="27" y="-647.375" font-family="Times,serif" font-size="14.00">start</text>
</g>
<!-- q0 -->
<g id="node3" class="node"><title>q0</title>
<ellipse fill="none" stroke="black" cx="27" cy="-575.927" rx="20.2975" ry="20.2975"/>
<text text-anchor="middle" x="27" y="-572.227" font-family="Times,serif" font-size="14.00">q0</text>
</g>
<!-- start&#45;&gt;q0 -->
<g id="edge1" class="edge"><title>start&#45;&gt;q0</title>
<path fill="none" stroke="black" d="M27,-632.74C27,-624.845 27,-615.278 27,-606.311"/>
<polygon fill="black" stroke="black" points="30.5001,-606.196 27,-596.196 23.5001,-606.196 30.5001,-606.196"/>
</g>
<!-- q6 -->
<g id="node2" class="node"><title>q6</title>
<ellipse fill="none" stroke="black" cx="27" cy="-24.1482" rx="20.2726" ry="20.2726"/>
<ellipse fill="none" stroke="black" cx="27" cy="-24.1482" rx="24.2973" ry="24.2973"/>
<text text-anchor="middle" x="27" y="-20.4482" font-family="Times,serif" font-size="14.00">q6</text>
</g>
<!-- q1 -->
<g id="node4" class="node"><title>q1</title>
<ellipse fill="none" stroke="black" cx="27" cy="-484.63" rx="20.2975" ry="20.2975"/>
<text text-anchor="middle" x="27" y="-480.93" font-family="Times,serif" font-size="14.00">q1</text>
</g>
<!-- q0&#45;&gt;q1 -->
<g id="edge2" class="edge"><title>q0&#45;&gt;q1</title>
<path fill="none" stroke="black" d="M27,-555.551C27,-543.732 27,-528.391 27,-515.091"/>
<polygon fill="black" stroke="black" points="30.5001,-514.968 27,-504.969 23.5001,-514.969 30.5001,-514.968"/>
<text text-anchor="middle" x="30.5" y="-526.579" font-family="Times,serif" font-size="14.00">ε</text>
</g>
<!-- q2 -->
<g id="node5" class="node"><title>q2</title>
<ellipse fill="none" stroke="black" cx="27" cy="-393.334" rx="20.2975" ry="20.2975"/>
<text text-anchor="middle" x="27" y="-389.634" font-family="Times,serif" font-size="14.00">q2</text>
</g>
<!-- q1&#45;&gt;q2 -->
<g id="edge3" class="edge"><title>q1&#45;&gt;q2</title>
<path fill="none" stroke="black" d="M27,-464.254C27,-452.436 27,-437.095 27,-423.795"/>
<polygon fill="black" stroke="black" points="30.5001,-423.672 27,-413.672 23.5001,-423.672 30.5001,-423.672"/>
<text text-anchor="middle" x="32" y="-435.282" font-family="Times,serif" font-size="14.00">A</text>
</g>
<!-- q3 -->
<g id="node6" class="node"><title>q3</title>
<ellipse fill="none" stroke="black" cx="27" cy="-302.037" rx="20.2975" ry="20.2975"/>
<text text-anchor="middle" x="27" y="-298.337" font-family="Times,serif" font-size="14.00">q3</text>
</g>
<!-- q2&#45;&gt;q3 -->
<g id="edge4" class="edge"><title>q2&#45;&gt;q3</title>
<path fill="none" stroke="black" d="M27,-372.958C27,-361.139 27,-345.798 27,-332.498"/>
<polygon fill="black" stroke="black" points="30.5001,-332.376 27,-322.376 23.5001,-332.376 30.5001,-332.376"/>
<text text-anchor="middle" x="30.5" y="-343.986" font-family="Times,serif" font-size="14.00">ε</text>
</g>
<!-- q4 -->
<g id="node7" class="node"><title>q4</title>
<ellipse fill="none" stroke="black" cx="27" cy="-210.741" rx="20.2975" ry="20.2975"/>
<text text-anchor="middle" x="27" y="-207.041" font-family="Times,serif" font-size="14.00">q4</text>
</g>
<!-- q3&#45;&gt;q4 -->
<g id="edge5" class="edge"><title>q3&#45;&gt;q4</title>
<path fill="none" stroke="black" d="M27,-281.661C27,-269.843 27,-254.502 27,-241.202"/>
<polygon fill="black" stroke="black" points="30.5001,-241.079 27,-231.079 23.5001,-241.079 30.5001,-241.079"/>
<text text-anchor="middle" x="30.5" y="-252.689" font-family="Times,serif" font-size="14.00">ε</text>
</g>
<!-- q5 -->
<g id="node8" class="node"><title>q5</title>
<ellipse fill="none" stroke="black" cx="27" cy="-119.445" rx="20.2975" ry="20.2975"/>
<text text-anchor="middle" x="27" y="-115.745" font-family="Times,serif" font-size="14.00">q5</text>
</g>
<!-- q4&#45;&gt;q5 -->
<g id="edge6" class="edge"><title>q4&#45;&gt;q5</title>
<path fill="none" stroke="black" d="M27,-190.365C27,-178.546 27,-163.205 27,-149.905"/>
<polygon fill="black" stroke="black" points="30.5001,-149.783 27,-139.783 23.5001,-149.783 30.5001,-149.783"/>
<text text-anchor="middle" x="32" y="-161.393" font-family="Times,serif" font-size="14.00">B</text>
</g>
<!-- q5&#45;&gt;q6 -->
<g id="edge7" class="edge"><title>q5&#45;&gt;q6</title>
<path fill="none" stroke="black" d="M27,-99.1136C27,-87.3748 27,-72.0726 27,-58.4345"/>
<polygon fill="black" stroke="black" points="30.5001,-58.4164 27,-48.4164 23.5001,-58.4164 30.5001,-58.4164"/>
<text text-anchor="middle" x="30.5" y="-70.0964" font-family="Times,serif" font-size="14.00">ε</text>
</g>
</g>
</svg>
