<?xml version="1.0" encoding="UTF-8" standalone="no"?>
<!DOCTYPE svg PUBLIC "-//W3C//DTD SVG 1.1//EN"
 "http://www.w3.org/Graphics/SVG/1.1/DTD/svg11.dtd">
<!-- Generated by graphviz version 2.38.0 (20140413.2041)
 -->
<!-- Title: automaton Pages: 1 -->
<svg width="157pt" height="919pt"
 viewBox="0.00 0.00 157.00 919.36" xmlns="http://www.w3.org/2000/svg" xmlns:xlink="http://www.w3.org/1999/xlink">
<g id="graph0" class="graph" transform="scale(1 1) rotate(0) translate(4 915.36)">
<title>automaton</title>
<polygon fill="white" stroke="none" points="-4,4 -4,-915.36 153,-915.36 153,4 -4,4"/>
<!-- start -->
<g id="node1" class="node"><title>start</title>
<text text-anchor="middle" x="71" y="-889.66" font-family="Times,serif" font-size="14.00">start</text>
</g>
<!-- q0 -->
<g id="node3" class="node"><title>q0</title>
<ellipse fill="none" stroke="black" cx="71" cy="-818.212" rx="20.2975" ry="20.2975"/>
<text text-anchor="middle" x="71" y="-814.512" font-family="Times,serif" font-size="14.00">q0</text>
</g>
<!-- start&#45;&gt;q0 -->
<g id="edge1" class="edge"><title>start&#45;&gt;q0</title>
<path fill="none" stroke="black" d="M71,-875.025C71,-867.13 71,-857.563 71,-848.596"/>
<polygon fill="black" stroke="black" points="74.5001,-848.481 71,-838.481 67.5001,-848.481 74.5001,-848.481"/>
</g>
<!-- q9 -->
<g id="node2" class="node"><title>q9</title>
<ellipse fill="none" stroke="black" cx="25" cy="-24.1482" rx="20.2726" ry="20.2726"/>
<ellipse fill="none" stroke="black" cx="25" cy="-24.1482" rx="24.2973" ry="24.2973"/>
<text text-anchor="middle" x="25" y="-20.4482" font-family="Times,serif" font-size="14.00">q9</text>
</g>
<!-- q0&#45;&gt;q9 -->
<g id="edge2" class="edge"><title>q0&#45;&gt;q9</title>
<path fill="none" stroke="black" d="M54.5327,-805.98C33.5586,-790.196 0,-759.323 0,-723.366 0,-723.366 0,-723.366 0,-118.445 0,-97.1791 6.13495,-74.0877 12.3266,-56.198"/>
<polygon fill="black" stroke="black" points="15.6962,-57.1735 15.8329,-46.5796 9.11959,-54.7761 15.6962,-57.1735"/>
<text text-anchor="middle" x="3.5" y="-389.634" font-family="Times,serif" font-size="14.00">ε</text>
</g>
<!-- q10 -->
<g id="node4" class="node"><title>q10</title>
<ellipse fill="none" stroke="black" cx="71" cy="-722.366" rx="24.8972" ry="24.8972"/>
<text text-anchor="middle" x="71" y="-718.666" font-family="Times,serif" font-size="14.00">q10</text>
</g>
<!-- q0&#45;&gt;q10 -->
<g id="edge3" class="edge"><title>q0&#45;&gt;q10</title>
<path fill="none" stroke="black" d="M71,-797.767C71,-786.044 71,-770.789 71,-757.147"/>
<polygon fill="black" stroke="black" points="74.5001,-757.113 71,-747.113 67.5001,-757.113 74.5001,-757.113"/>
<text text-anchor="middle" x="74.5" y="-768.863" font-family="Times,serif" font-size="14.00">ε</text>
</g>
<!-- q1 -->
<g id="node5" class="node"><title>q1</title>
<ellipse fill="none" stroke="black" cx="46" cy="-568.223" rx="20.2975" ry="20.2975"/>
<text text-anchor="middle" x="46" y="-564.523" font-family="Times,serif" font-size="14.00">q1</text>
</g>
<!-- q10&#45;&gt;q1 -->
<g id="edge13" class="edge"><title>q10&#45;&gt;q1</title>
<path fill="none" stroke="black" d="M67.1485,-697.927C62.757,-671.201 55.5722,-627.477 50.8146,-598.524"/>
<polygon fill="black" stroke="black" points="54.2566,-597.884 49.1813,-588.584 47.3492,-599.019 54.2566,-597.884"/>
<text text-anchor="middle" x="67.5" y="-668.468" font-family="Times,serif" font-size="14.00">ε</text>
</g>
<!-- q4 -->
<g id="node8" class="node"><title>q4</title>
<ellipse fill="none" stroke="black" cx="94" cy="-626.52" rx="20.2975" ry="20.2975"/>
<text text-anchor="middle" x="94" y="-622.82" font-family="Times,serif" font-size="14.00">q4</text>
</g>
<!-- q10&#45;&gt;q4 -->
<g id="edge14" class="edge"><title>q10&#45;&gt;q4</title>
<path fill="none" stroke="black" d="M76.6854,-698.168C79.802,-685.451 83.6917,-669.58 86.9945,-656.104"/>
<polygon fill="black" stroke="black" points="90.4021,-656.903 89.3832,-646.357 83.6034,-655.237 90.4021,-656.903"/>
<text text-anchor="middle" x="88.5" y="-668.468" font-family="Times,serif" font-size="14.00">ε</text>
</g>
<!-- q2 -->
<g id="node6" class="node"><title>q2</title>
<ellipse fill="none" stroke="black" cx="46" cy="-451.63" rx="20.2975" ry="20.2975"/>
<text text-anchor="middle" x="46" y="-447.93" font-family="Times,serif" font-size="14.00">q2</text>
</g>
<!-- q1&#45;&gt;q2 -->
<g id="edge4" class="edge"><title>q1&#45;&gt;q2</title>
<path fill="none" stroke="black" d="M46,-548.043C46,-530.03 46,-502.818 46,-482.058"/>
<polygon fill="black" stroke="black" points="49.5001,-481.873 46,-471.873 42.5001,-481.873 49.5001,-481.873"/>
<text text-anchor="middle" x="49.5" y="-506.227" font-family="Times,serif" font-size="14.00">0</text>
</g>
<!-- q3 -->
<g id="node7" class="node"><title>q3</title>
<ellipse fill="none" stroke="black" cx="67" cy="-119.445" rx="20.2975" ry="20.2975"/>
<text text-anchor="middle" x="67" y="-115.745" font-family="Times,serif" font-size="14.00">q3</text>
</g>
<!-- q2&#45;&gt;q3 -->
<g id="edge5" class="edge"><title>q2&#45;&gt;q3</title>
<path fill="none" stroke="black" d="M46,-431.465C46,-410.976 46,-377.535 46,-348.686 46,-348.686 46,-348.686 46,-209.741 46,-188.707 51.5899,-165.607 57.0016,-148.173"/>
<polygon fill="black" stroke="black" points="60.3437,-149.214 60.1238,-138.621 53.6901,-147.039 60.3437,-149.214"/>
<text text-anchor="middle" x="49.5" y="-298.337" font-family="Times,serif" font-size="14.00">ε</text>
</g>
<!-- q3&#45;&gt;q9 -->
<g id="edge7" class="edge"><title>q3&#45;&gt;q9</title>
<path fill="none" stroke="black" d="M59.1001,-100.896C53.4083,-88.2527 45.5786,-70.8605 38.8573,-55.93"/>
<polygon fill="black" stroke="black" points="41.9306,-54.2305 34.634,-46.5486 35.5475,-57.104 41.9306,-54.2305"/>
<text text-anchor="middle" x="53.5" y="-70.0964" font-family="Times,serif" font-size="14.00">ε</text>
</g>
<!-- q3&#45;&gt;q0 -->
<g id="edge6" class="edge"><title>q3&#45;&gt;q0</title>
<path fill="none" stroke="black" d="M84.0187,-130.47C106.147,-144.937 142,-173.907 142,-209.741 142,-723.366 142,-723.366 142,-723.366 142,-754.969 116.077,-782.644 95.5585,-799.6"/>
<polygon fill="black" stroke="black" points="93.1526,-797.04 87.4673,-805.98 97.4869,-802.536 93.1526,-797.04"/>
<text text-anchor="middle" x="145.5" y="-447.93" font-family="Times,serif" font-size="14.00">ε</text>
</g>
<!-- q5 -->
<g id="node9" class="node"><title>q5</title>
<ellipse fill="none" stroke="black" cx="94" cy="-509.927" rx="20.2975" ry="20.2975"/>
<text text-anchor="middle" x="94" y="-506.227" font-family="Times,serif" font-size="14.00">q5</text>
</g>
<!-- q4&#45;&gt;q5 -->
<g id="edge8" class="edge"><title>q4&#45;&gt;q5</title>
<path fill="none" stroke="black" d="M94,-606.339C94,-588.326 94,-561.114 94,-540.354"/>
<polygon fill="black" stroke="black" points="97.5001,-540.17 94,-530.17 90.5001,-540.17 97.5001,-540.17"/>
<text text-anchor="middle" x="97.5" y="-564.523" font-family="Times,serif" font-size="14.00">1</text>
</g>
<!-- q6 -->
<g id="node10" class="node"><title>q6</title>
<ellipse fill="none" stroke="black" cx="94" cy="-393.334" rx="20.2975" ry="20.2975"/>
<text text-anchor="middle" x="94" y="-389.634" font-family="Times,serif" font-size="14.00">q6</text>
</g>
<!-- q5&#45;&gt;q6 -->
<g id="edge9" class="edge"><title>q5&#45;&gt;q6</title>
<path fill="none" stroke="black" d="M94,-489.746C94,-471.733 94,-444.521 94,-423.762"/>
<polygon fill="black" stroke="black" points="97.5001,-423.577 94,-413.577 90.5001,-423.577 97.5001,-423.577"/>
<text text-anchor="middle" x="97.5" y="-447.93" font-family="Times,serif" font-size="14.00">ε</text>
</g>
<!-- q7 -->
<g id="node11" class="node"><title>q7</title>
<ellipse fill="none" stroke="black" cx="94" cy="-302.037" rx="20.2975" ry="20.2975"/>
<text text-anchor="middle" x="94" y="-298.337" font-family="Times,serif" font-size="14.00">q7</text>
</g>
<!-- q6&#45;&gt;q7 -->
<g id="edge10" class="edge"><title>q6&#45;&gt;q7</title>
<path fill="none" stroke="black" d="M94,-372.958C94,-361.139 94,-345.798 94,-332.498"/>
<polygon fill="black" stroke="black" points="97.5001,-332.376 94,-322.376 90.5001,-332.376 97.5001,-332.376"/>
<text text-anchor="middle" x="97.5" y="-343.986" font-family="Times,serif" font-size="14.00">ε</text>
</g>
<!-- q8 -->
<g id="node12" class="node"><title>q8</title>
<ellipse fill="none" stroke="black" cx="94" cy="-210.741" rx="20.2975" ry="20.2975"/>
<text text-anchor="middle" x="94" y="-207.041" font-family="Times,serif" font-size="14.00">q8</text>
</g>
<!-- q7&#45;&gt;q8 -->
<g id="edge11" class="edge"><title>q7&#45;&gt;q8</title>
<path fill="none" stroke="black" d="M94,-281.661C94,-269.843 94,-254.502 94,-241.202"/>
<polygon fill="black" stroke="black" points="97.5001,-241.079 94,-231.079 90.5001,-241.079 97.5001,-241.079"/>
<text text-anchor="middle" x="97.5" y="-252.689" font-family="Times,serif" font-size="14.00">2</text>
</g>
<!-- q8&#45;&gt;q3 -->
<g id="edge12" class="edge"><title>q8&#45;&gt;q3</title>
<path fill="none" stroke="black" d="M88.4056,-191.239C84.6768,-178.907 79.7055,-162.465 75.4924,-148.531"/>
<polygon fill="black" stroke="black" points="78.8318,-147.482 72.5873,-138.923 72.1313,-149.508 78.8318,-147.482"/>
<text text-anchor="middle" x="86.5" y="-161.393" font-family="Times,serif" font-size="14.00">ε</text>
</g>
</g>
</svg>
