<?xml version="1.0" encoding="UTF-8" standalone="no"?>
<!DOCTYPE svg PUBLIC "-//W3C//DTD SVG 1.1//EN"
 "http://www.w3.org/Graphics/SVG/1.1/DTD/svg11.dtd">
<!-- Generated by graphviz version 2.38.0 (20140413.2041)
 -->
<!-- Title: automaton Pages: 1 -->
<svg width="163pt" height="636pt"
 viewBox="0.00 0.00 163.00 636.37" xmlns="http://www.w3.org/2000/svg" xmlns:xlink="http://www.w3.org/1999/xlink">
<g id="graph0" class="graph" transform="scale(1 1) rotate(0) translate(4 632.371)">
<title>automaton</title>
<polygon fill="white" stroke="none" points="-4,4 -4,-632.371 159,-632.371 159,4 -4,4"/>
<!-- start -->
<g id="node1" class="node"><title>start</title>
<text text-anchor="middle" x="64" y="-606.671" font-family="Times,serif" font-size="14.00">start</text>
</g>
<!-- q0 -->
<g id="node3" class="node"><title>q0</title>
<ellipse fill="none" stroke="black" cx="64" cy="-535.223" rx="20.2975" ry="20.2975"/>
<text text-anchor="middle" x="64" y="-531.523" font-family="Times,serif" font-size="14.00">q0</text>
</g>
<!-- start&#45;&gt;q0 -->
<g id="edge1" class="edge"><title>start&#45;&gt;q0</title>
<path fill="none" stroke="black" d="M64,-592.036C64,-584.141 64,-574.574 64,-565.607"/>
<polygon fill="black" stroke="black" points="67.5001,-565.493 64,-555.493 60.5001,-565.493 67.5001,-565.493"/>
</g>
<!-- q4 -->
<g id="node2" class="node"><title>q4</title>
<ellipse fill="none" stroke="black" cx="45" cy="-24.1482" rx="20.2726" ry="20.2726"/>
<ellipse fill="none" stroke="black" cx="45" cy="-24.1482" rx="24.2973" ry="24.2973"/>
<text text-anchor="middle" x="45" y="-20.4482" font-family="Times,serif" font-size="14.00">q4</text>
</g>
<!-- q0&#45;&gt;q4 -->
<g id="edge2" class="edge"><title>q0&#45;&gt;q4</title>
<path fill="none" stroke="black" d="M48.1798,-522.556C29.2275,-507.103 0,-477.924 0,-444.927 0,-444.927 0,-444.927 0,-118.445 0,-94.4022 12.2734,-70.0261 24.0007,-52.2222"/>
<polygon fill="black" stroke="black" points="27.1937,-53.7597 30.0157,-43.5476 21.4413,-49.771 27.1937,-53.7597"/>
<text text-anchor="middle" x="3.5" y="-265.337" font-family="Times,serif" font-size="14.00">ε</text>
</g>
<!-- q5 -->
<g id="node4" class="node"><title>q5</title>
<ellipse fill="none" stroke="black" cx="93" cy="-443.927" rx="20.2975" ry="20.2975"/>
<text text-anchor="middle" x="93" y="-440.227" font-family="Times,serif" font-size="14.00">q5</text>
</g>
<!-- q0&#45;&gt;q5 -->
<g id="edge3" class="edge"><title>q0&#45;&gt;q5</title>
<path fill="none" stroke="black" d="M70.0088,-515.721C74.0138,-503.389 79.3533,-486.947 83.8785,-473.014"/>
<polygon fill="black" stroke="black" points="87.2389,-473.997 86.9989,-463.405 80.5812,-471.835 87.2389,-473.997"/>
<text text-anchor="middle" x="83.5" y="-485.875" font-family="Times,serif" font-size="14.00">ε</text>
</g>
<!-- q6 -->
<g id="node5" class="node"><title>q6</title>
<ellipse fill="none" stroke="black" cx="45" cy="-385.63" rx="20.2975" ry="20.2975"/>
<text text-anchor="middle" x="45" y="-381.93" font-family="Times,serif" font-size="14.00">q6</text>
</g>
<!-- q0&#45;&gt;q6 -->
<g id="edge4" class="edge"><title>q0&#45;&gt;q6</title>
<path fill="none" stroke="black" d="M61.5161,-514.928C58.273,-489.736 52.5653,-445.398 48.7828,-416.015"/>
<polygon fill="black" stroke="black" points="52.2328,-415.402 47.4845,-405.93 45.29,-416.295 52.2328,-415.402"/>
<text text-anchor="middle" x="62.5" y="-485.875" font-family="Times,serif" font-size="14.00">ε</text>
</g>
<!-- q1 -->
<g id="node6" class="node"><title>q1</title>
<ellipse fill="none" stroke="black" cx="92" cy="-327.334" rx="20.2975" ry="20.2975"/>
<text text-anchor="middle" x="92" y="-323.634" font-family="Times,serif" font-size="14.00">q1</text>
</g>
<!-- q5&#45;&gt;q1 -->
<g id="edge9" class="edge"><title>q5&#45;&gt;q1</title>
<path fill="none" stroke="black" d="M92.8326,-423.746C92.6754,-405.733 92.438,-378.521 92.2568,-357.762"/>
<polygon fill="black" stroke="black" points="95.7551,-357.546 92.1679,-347.577 88.7554,-357.607 95.7551,-357.546"/>
<text text-anchor="middle" x="95.5" y="-381.93" font-family="Times,serif" font-size="14.00">ε</text>
</g>
<!-- q7 -->
<g id="node9" class="node"><title>q7</title>
<ellipse fill="none" stroke="black" cx="45" cy="-269.037" rx="20.2975" ry="20.2975"/>
<text text-anchor="middle" x="45" y="-265.337" font-family="Times,serif" font-size="14.00">q7</text>
</g>
<!-- q6&#45;&gt;q7 -->
<g id="edge10" class="edge"><title>q6&#45;&gt;q7</title>
<path fill="none" stroke="black" d="M45,-365.45C45,-347.437 45,-320.225 45,-299.465"/>
<polygon fill="black" stroke="black" points="48.5001,-299.28 45,-289.28 41.5001,-299.28 48.5001,-299.28"/>
<text text-anchor="middle" x="49" y="-323.634" font-family="Times,serif" font-size="14.00">b</text>
</g>
<!-- q2 -->
<g id="node7" class="node"><title>q2</title>
<ellipse fill="none" stroke="black" cx="93" cy="-210.741" rx="20.2975" ry="20.2975"/>
<text text-anchor="middle" x="93" y="-207.041" font-family="Times,serif" font-size="14.00">q2</text>
</g>
<!-- q1&#45;&gt;q2 -->
<g id="edge5" class="edge"><title>q1&#45;&gt;q2</title>
<path fill="none" stroke="black" d="M92.1674,-307.154C92.3246,-289.14 92.562,-261.928 92.7432,-241.169"/>
<polygon fill="black" stroke="black" points="96.2446,-241.014 92.8321,-230.984 89.2449,-240.953 96.2446,-241.014"/>
<text text-anchor="middle" x="97" y="-265.337" font-family="Times,serif" font-size="14.00">A</text>
</g>
<!-- q3 -->
<g id="node8" class="node"><title>q3</title>
<ellipse fill="none" stroke="black" cx="93" cy="-119.445" rx="20.2975" ry="20.2975"/>
<text text-anchor="middle" x="93" y="-115.745" font-family="Times,serif" font-size="14.00">q3</text>
</g>
<!-- q2&#45;&gt;q3 -->
<g id="edge6" class="edge"><title>q2&#45;&gt;q3</title>
<path fill="none" stroke="black" d="M93,-190.365C93,-178.546 93,-163.205 93,-149.905"/>
<polygon fill="black" stroke="black" points="96.5001,-149.783 93,-139.783 89.5001,-149.783 96.5001,-149.783"/>
<text text-anchor="middle" x="96.5" y="-161.393" font-family="Times,serif" font-size="14.00">ε</text>
</g>
<!-- q3&#45;&gt;q4 -->
<g id="edge8" class="edge"><title>q3&#45;&gt;q4</title>
<path fill="none" stroke="black" d="M83.9716,-100.896C77.3147,-87.9575 68.0992,-70.0455 60.3008,-54.8881"/>
<polygon fill="black" stroke="black" points="63.3511,-53.1663 55.6639,-45.8754 57.1266,-56.3688 63.3511,-53.1663"/>
<text text-anchor="middle" x="76.5" y="-70.0964" font-family="Times,serif" font-size="14.00">ε</text>
</g>
<!-- q3&#45;&gt;q0 -->
<g id="edge7" class="edge"><title>q3&#45;&gt;q0</title>
<path fill="none" stroke="black" d="M107.739,-133.713C124.031,-149.911 148,-178.97 148,-209.741 148,-444.927 148,-444.927 148,-444.927 148,-478.898 115.348,-505.22 90.7585,-520.226"/>
<polygon fill="black" stroke="black" points="88.7074,-517.37 81.8142,-525.415 92.2203,-523.424 88.7074,-517.37"/>
<text text-anchor="middle" x="151.5" y="-323.634" font-family="Times,serif" font-size="14.00">ε</text>
</g>
<!-- q7&#45;&gt;q4 -->
<g id="edge11" class="edge"><title>q7&#45;&gt;q4</title>
<path fill="none" stroke="black" d="M45,-248.571C45,-207.269 45,-110.428 45,-58.8574"/>
<polygon fill="black" stroke="black" points="48.5001,-58.5761 45,-48.5762 41.5001,-58.5762 48.5001,-58.5761"/>
<text text-anchor="middle" x="48.5" y="-161.393" font-family="Times,serif" font-size="14.00">ε</text>
</g>
</g>
</svg>
