<?xml version="1.0" encoding="UTF-8" standalone="no"?>
<!DOCTYPE svg PUBLIC "-//W3C//DTD SVG 1.1//EN"
 "http://www.w3.org/Graphics/SVG/1.1/DTD/svg11.dtd">
<!-- Generated by graphviz version 2.38.0 (20140413.2041)
 -->
<!-- Title: automaton Pages: 1 -->
<svg width="197pt" height="1170pt"
 viewBox="0.00 0.00 196.70 1169.95" xmlns="http://www.w3.org/2000/svg" xmlns:xlink="http://www.w3.org/1999/xlink">
<g id="graph0" class="graph" transform="scale(1 1) rotate(0) translate(4 1165.95)">
<title>automaton</title>
<polygon fill="white" stroke="none" points="-4,4 -4,-1165.95 192.698,-1165.95 192.698,4 -4,4"/>
<!-- start -->
<g id="node1" class="node"><title>start</title>
<text text-anchor="middle" x="96.6978" y="-1140.25" font-family="Times,serif" font-size="14.00">start</text>
</g>
<!-- q0 -->
<g id="node3" class="node"><title>q0</title>
<ellipse fill="none" stroke="black" cx="96.6978" cy="-1068.81" rx="20.2975" ry="20.2975"/>
<text text-anchor="middle" x="96.6978" y="-1065.11" font-family="Times,serif" font-size="14.00">q0</text>
</g>
<!-- start&#45;&gt;q0 -->
<g id="edge1" class="edge"><title>start&#45;&gt;q0</title>
<path fill="none" stroke="black" d="M96.6978,-1125.62C96.6978,-1117.72 96.6978,-1108.16 96.6978,-1099.19"/>
<polygon fill="black" stroke="black" points="100.198,-1099.08 96.6978,-1089.08 93.1979,-1099.08 100.198,-1099.08"/>
</g>
<!-- q13 -->
<g id="node2" class="node"><title>q13</title>
<ellipse fill="none" stroke="black" cx="61.6978" cy="-28.6978" rx="24.8692" ry="24.8692"/>
<ellipse fill="none" stroke="black" cx="61.6978" cy="-28.6978" rx="28.897" ry="28.897"/>
<text text-anchor="middle" x="61.6978" y="-24.9978" font-family="Times,serif" font-size="14.00">q13</text>
</g>
<!-- q6 -->
<g id="node4" class="node"><title>q6</title>
<ellipse fill="none" stroke="black" cx="48.6978" cy="-612.324" rx="20.2975" ry="20.2975"/>
<text text-anchor="middle" x="48.6978" y="-608.624" font-family="Times,serif" font-size="14.00">q6</text>
</g>
<!-- q0&#45;&gt;q6 -->
<g id="edge2" class="edge"><title>q0&#45;&gt;q6</title>
<path fill="none" stroke="black" d="M79.2253,-1057.89C56.5071,-1043.56 19.6978,-1014.74 19.6978,-978.509 19.6978,-978.509 19.6978,-978.509 19.6978,-702.62 19.6978,-680.819 27.6138,-657.423 35.1742,-640.05"/>
<polygon fill="black" stroke="black" points="38.5326,-641.124 39.522,-630.575 32.1704,-638.204 38.5326,-641.124"/>
<text text-anchor="middle" x="23.1978" y="-836.865" font-family="Times,serif" font-size="14.00">ε</text>
</g>
<!-- q7 -->
<g id="node5" class="node"><title>q7</title>
<ellipse fill="none" stroke="black" cx="96.6978" cy="-977.509" rx="20.2975" ry="20.2975"/>
<text text-anchor="middle" x="96.6978" y="-973.809" font-family="Times,serif" font-size="14.00">q7</text>
</g>
<!-- q0&#45;&gt;q7 -->
<g id="edge3" class="edge"><title>q0&#45;&gt;q7</title>
<path fill="none" stroke="black" d="M96.6978,-1048.43C96.6978,-1036.61 96.6978,-1021.27 96.6978,-1007.97"/>
<polygon fill="black" stroke="black" points="100.198,-1007.85 96.6978,-997.847 93.1979,-1007.85 100.198,-1007.85"/>
<text text-anchor="middle" x="100.198" y="-1019.46" font-family="Times,serif" font-size="14.00">ε</text>
</g>
<!-- q8 -->
<g id="node11" class="node"><title>q8</title>
<ellipse fill="none" stroke="black" cx="48.6978" cy="-521.027" rx="20.2975" ry="20.2975"/>
<text text-anchor="middle" x="48.6978" y="-517.327" font-family="Times,serif" font-size="14.00">q8</text>
</g>
<!-- q6&#45;&gt;q8 -->
<g id="edge10" class="edge"><title>q6&#45;&gt;q8</title>
<path fill="none" stroke="black" d="M48.6978,-591.948C48.6978,-580.129 48.6978,-564.788 48.6978,-551.488"/>
<polygon fill="black" stroke="black" points="52.1979,-551.365 48.6978,-541.365 45.1979,-551.365 52.1979,-551.365"/>
<text text-anchor="middle" x="52.1978" y="-562.975" font-family="Times,serif" font-size="14.00">ε</text>
</g>
<!-- q1 -->
<g id="node6" class="node"><title>q1</title>
<ellipse fill="none" stroke="black" cx="67.6978" cy="-886.213" rx="20.2975" ry="20.2975"/>
<text text-anchor="middle" x="67.6978" y="-882.513" font-family="Times,serif" font-size="14.00">q1</text>
</g>
<!-- q7&#45;&gt;q1 -->
<g id="edge11" class="edge"><title>q7&#45;&gt;q1</title>
<path fill="none" stroke="black" d="M89.5683,-958.474C87.2701,-952.435 84.7807,-945.641 82.6978,-939.361 80.1822,-931.776 77.6867,-923.492 75.4742,-915.805"/>
<polygon fill="black" stroke="black" points="78.8348,-914.826 72.7509,-906.152 72.0979,-916.727 78.8348,-914.826"/>
<text text-anchor="middle" x="86.1978" y="-928.161" font-family="Times,serif" font-size="14.00">ε</text>
</g>
<!-- q4 -->
<g id="node9" class="node"><title>q4</title>
<ellipse fill="none" stroke="black" cx="125.698" cy="-886.213" rx="20.2975" ry="20.2975"/>
<text text-anchor="middle" x="125.698" y="-882.513" font-family="Times,serif" font-size="14.00">q4</text>
</g>
<!-- q7&#45;&gt;q4 -->
<g id="edge12" class="edge"><title>q7&#45;&gt;q4</title>
<path fill="none" stroke="black" d="M102.707,-958.007C106.712,-945.675 112.051,-929.234 116.576,-915.3"/>
<polygon fill="black" stroke="black" points="119.937,-916.283 119.697,-905.691 113.279,-914.121 119.937,-916.283"/>
<text text-anchor="middle" x="117.198" y="-928.161" font-family="Times,serif" font-size="14.00">ε</text>
</g>
<!-- q2 -->
<g id="node7" class="node"><title>q2</title>
<ellipse fill="none" stroke="black" cx="67.6978" cy="-794.916" rx="20.2975" ry="20.2975"/>
<text text-anchor="middle" x="67.6978" y="-791.216" font-family="Times,serif" font-size="14.00">q2</text>
</g>
<!-- q1&#45;&gt;q2 -->
<g id="edge4" class="edge"><title>q1&#45;&gt;q2</title>
<path fill="none" stroke="black" d="M67.6978,-865.837C67.6978,-854.018 67.6978,-838.677 67.6978,-825.377"/>
<polygon fill="black" stroke="black" points="71.1979,-825.255 67.6978,-815.255 64.1979,-825.255 71.1979,-825.255"/>
<text text-anchor="middle" x="71.1978" y="-836.865" font-family="Times,serif" font-size="14.00">0</text>
</g>
<!-- q3 -->
<g id="node8" class="node"><title>q3</title>
<ellipse fill="none" stroke="black" cx="103.698" cy="-703.62" rx="20.2975" ry="20.2975"/>
<text text-anchor="middle" x="103.698" y="-699.92" font-family="Times,serif" font-size="14.00">q3</text>
</g>
<!-- q2&#45;&gt;q3 -->
<g id="edge5" class="edge"><title>q2&#45;&gt;q3</title>
<path fill="none" stroke="black" d="M74.9829,-775.846C80.0577,-763.258 86.9189,-746.239 92.6619,-731.994"/>
<polygon fill="black" stroke="black" points="95.9305,-733.247 96.4235,-722.664 89.4382,-730.63 95.9305,-733.247"/>
<text text-anchor="middle" x="93.1978" y="-745.568" font-family="Times,serif" font-size="14.00">ε</text>
</g>
<!-- q3&#45;&gt;q0 -->
<g id="edge6" class="edge"><title>q3&#45;&gt;q0</title>
<path fill="none" stroke="black" d="M121.009,-714.233C143.988,-728.418 181.698,-757.276 181.698,-793.916 181.698,-978.509 181.698,-978.509 181.698,-978.509 181.698,-1012.82 148.365,-1039.18 123.447,-1054.09"/>
<polygon fill="black" stroke="black" points="121.681,-1051.06 114.724,-1059.05 125.146,-1057.15 121.681,-1051.06"/>
<text text-anchor="middle" x="185.198" y="-882.513" font-family="Times,serif" font-size="14.00">ε</text>
</g>
<!-- q3&#45;&gt;q6 -->
<g id="edge7" class="edge"><title>q3&#45;&gt;q6</title>
<path fill="none" stroke="black" d="M93.3527,-685.824C85.2097,-672.603 73.7253,-653.957 64.4424,-638.886"/>
<polygon fill="black" stroke="black" points="67.221,-636.723 58.9965,-630.044 61.2608,-640.394 67.221,-636.723"/>
<text text-anchor="middle" x="83.1978" y="-654.272" font-family="Times,serif" font-size="14.00">ε</text>
</g>
<!-- q5 -->
<g id="node10" class="node"><title>q5</title>
<ellipse fill="none" stroke="black" cx="125.698" cy="-794.916" rx="20.2975" ry="20.2975"/>
<text text-anchor="middle" x="125.698" y="-791.216" font-family="Times,serif" font-size="14.00">q5</text>
</g>
<!-- q4&#45;&gt;q5 -->
<g id="edge8" class="edge"><title>q4&#45;&gt;q5</title>
<path fill="none" stroke="black" d="M125.698,-865.837C125.698,-854.018 125.698,-838.677 125.698,-825.377"/>
<polygon fill="black" stroke="black" points="129.198,-825.255 125.698,-815.255 122.198,-825.255 129.198,-825.255"/>
<text text-anchor="middle" x="129.198" y="-836.865" font-family="Times,serif" font-size="14.00">1</text>
</g>
<!-- q5&#45;&gt;q3 -->
<g id="edge9" class="edge"><title>q5&#45;&gt;q3</title>
<path fill="none" stroke="black" d="M121.032,-774.979C118.057,-762.903 114.144,-747.021 110.789,-733.402"/>
<polygon fill="black" stroke="black" points="114.147,-732.403 108.357,-723.53 107.351,-734.077 114.147,-732.403"/>
<text text-anchor="middle" x="120.198" y="-745.568" font-family="Times,serif" font-size="14.00">ε</text>
</g>
<!-- q9 -->
<g id="node12" class="node"><title>q9</title>
<ellipse fill="none" stroke="black" cx="48.6978" cy="-429.731" rx="20.2975" ry="20.2975"/>
<text text-anchor="middle" x="48.6978" y="-426.031" font-family="Times,serif" font-size="14.00">q9</text>
</g>
<!-- q8&#45;&gt;q9 -->
<g id="edge13" class="edge"><title>q8&#45;&gt;q9</title>
<path fill="none" stroke="black" d="M48.6978,-500.651C48.6978,-488.833 48.6978,-473.491 48.6978,-460.191"/>
<polygon fill="black" stroke="black" points="52.1979,-460.069 48.6978,-450.069 45.1979,-460.069 52.1979,-460.069"/>
<text text-anchor="middle" x="52.1978" y="-471.679" font-family="Times,serif" font-size="14.00">1</text>
</g>
<!-- q10 -->
<g id="node13" class="node"><title>q10</title>
<ellipse fill="none" stroke="black" cx="48.6978" cy="-333.885" rx="24.8972" ry="24.8972"/>
<text text-anchor="middle" x="48.6978" y="-330.185" font-family="Times,serif" font-size="14.00">q10</text>
</g>
<!-- q9&#45;&gt;q10 -->
<g id="edge14" class="edge"><title>q9&#45;&gt;q10</title>
<path fill="none" stroke="black" d="M48.6978,-409.286C48.6978,-397.563 48.6978,-382.308 48.6978,-368.666"/>
<polygon fill="black" stroke="black" points="52.1979,-368.632 48.6978,-358.632 45.1979,-368.632 52.1979,-368.632"/>
<text text-anchor="middle" x="52.1978" y="-380.382" font-family="Times,serif" font-size="14.00">ε</text>
</g>
<!-- q11 -->
<g id="node14" class="node"><title>q11</title>
<ellipse fill="none" stroke="black" cx="24.6978" cy="-233.489" rx="24.8972" ry="24.8972"/>
<text text-anchor="middle" x="24.6978" y="-229.789" font-family="Times,serif" font-size="14.00">q11</text>
</g>
<!-- q10&#45;&gt;q11 -->
<g id="edge15" class="edge"><title>q10&#45;&gt;q11</title>
<path fill="none" stroke="black" d="M43.0709,-309.815C40.0237,-297.322 36.2041,-281.663 32.838,-267.862"/>
<polygon fill="black" stroke="black" points="36.1427,-266.641 30.3726,-257.755 29.3421,-268.299 36.1427,-266.641"/>
<text text-anchor="middle" x="42.1978" y="-279.987" font-family="Times,serif" font-size="14.00">ε</text>
</g>
<!-- q14 -->
<g id="node15" class="node"><title>q14</title>
<ellipse fill="none" stroke="black" cx="91.6978" cy="-233.489" rx="24.8972" ry="24.8972"/>
<text text-anchor="middle" x="91.6978" y="-229.789" font-family="Times,serif" font-size="14.00">q14</text>
</g>
<!-- q10&#45;&gt;q14 -->
<g id="edge16" class="edge"><title>q10&#45;&gt;q14</title>
<path fill="none" stroke="black" d="M58.2409,-311.047C64.0457,-297.764 71.5556,-280.58 77.9891,-265.858"/>
<polygon fill="black" stroke="black" points="81.2353,-267.17 82.0327,-256.605 74.8211,-264.367 81.2353,-267.17"/>
<text text-anchor="middle" x="77.1978" y="-279.987" font-family="Times,serif" font-size="14.00">ε</text>
</g>
<!-- q12 -->
<g id="node16" class="node"><title>q12</title>
<ellipse fill="none" stroke="black" cx="24.6978" cy="-133.093" rx="24.8972" ry="24.8972"/>
<text text-anchor="middle" x="24.6978" y="-129.393" font-family="Times,serif" font-size="14.00">q12</text>
</g>
<!-- q11&#45;&gt;q12 -->
<g id="edge17" class="edge"><title>q11&#45;&gt;q12</title>
<path fill="none" stroke="black" d="M24.6978,-208.67C24.6978,-196.553 24.6978,-181.607 24.6978,-168.285"/>
<polygon fill="black" stroke="black" points="28.1979,-168.034 24.6978,-158.034 21.1979,-168.034 28.1979,-168.034"/>
<text text-anchor="middle" x="28.1978" y="-179.591" font-family="Times,serif" font-size="14.00">0</text>
</g>
<!-- q15 -->
<g id="node17" class="node"><title>q15</title>
<ellipse fill="none" stroke="black" cx="91.6978" cy="-133.093" rx="24.8972" ry="24.8972"/>
<text text-anchor="middle" x="91.6978" y="-129.393" font-family="Times,serif" font-size="14.00">q15</text>
</g>
<!-- q14&#45;&gt;q15 -->
<g id="edge19" class="edge"><title>q14&#45;&gt;q15</title>
<path fill="none" stroke="black" d="M91.6978,-208.67C91.6978,-196.553 91.6978,-181.607 91.6978,-168.285"/>
<polygon fill="black" stroke="black" points="95.1979,-168.034 91.6978,-158.034 88.1979,-168.034 95.1979,-168.034"/>
<text text-anchor="middle" x="95.1978" y="-179.591" font-family="Times,serif" font-size="14.00">1</text>
</g>
<!-- q12&#45;&gt;q13 -->
<g id="edge18" class="edge"><title>q12&#45;&gt;q13</title>
<path fill="none" stroke="black" d="M32.8176,-109.622C37.4497,-96.8032 43.3655,-80.4315 48.6353,-65.8478"/>
<polygon fill="black" stroke="black" points="52.0499,-66.6969 52.1566,-56.1026 45.4665,-64.318 52.0499,-66.6969"/>
<text text-anchor="middle" x="48.1978" y="-79.1956" font-family="Times,serif" font-size="14.00">ε</text>
</g>
<!-- q15&#45;&gt;q13 -->
<g id="edge20" class="edge"><title>q15&#45;&gt;q13</title>
<path fill="none" stroke="black" d="M84.9652,-109.114C81.2953,-96.5877 76.6652,-80.7842 72.5034,-66.5795"/>
<polygon fill="black" stroke="black" points="75.7468,-65.201 69.5763,-56.5885 69.0292,-67.1692 75.7468,-65.201"/>
<text text-anchor="middle" x="83.1978" y="-79.1956" font-family="Times,serif" font-size="14.00">ε</text>
</g>
</g>
</svg>
