<?xml version="1.0" encoding="UTF-8" standalone="no"?>
<!DOCTYPE svg PUBLIC "-//W3C//DTD SVG 1.1//EN"
 "http://www.w3.org/Graphics/SVG/1.1/DTD/svg11.dtd">
<!-- Generated by graphviz version 2.38.0 (20140413.2041)
 -->
<!-- Title: automaton Pages: 1 -->
<svg width="124pt" height="2270pt"
 viewBox="0.00 0.00 124.40 2270.00" xmlns="http://www.w3.org/2000/svg" xmlns:xlink="http://www.w3.org/1999/xlink">
<g id="graph0" class="graph" transform="scale(1 1) rotate(0) translate(4 2266)">
<title>automaton</title>
<polygon fill="white" stroke="none" points="-4,4 -4,-2266 120.396,-2266 120.396,4 -4,4"/>
<!-- start -->
<g id="node1" class="node"><title>start</title>
<text text-anchor="middle" x="58.6978" y="-2240.3" font-family="Times,serif" font-size="14.00">start</text>
</g>
<!-- q0 -->
<g id="node3" class="node"><title>q0</title>
<ellipse fill="none" stroke="black" cx="58.6978" cy="-2168.85" rx="20.2975" ry="20.2975"/>
<text text-anchor="middle" x="58.6978" y="-2165.15" font-family="Times,serif" font-size="14.00">q0</text>
</g>
<!-- start&#45;&gt;q0 -->
<g id="edge1" class="edge"><title>start&#45;&gt;q0</title>
<path fill="none" stroke="black" d="M58.6978,-2225.66C58.6978,-2217.77 58.6978,-2208.2 58.6978,-2199.23"/>
<polygon fill="black" stroke="black" points="62.1979,-2199.12 58.6978,-2189.12 55.1979,-2199.12 62.1979,-2199.12"/>
</g>
<!-- q28 -->
<g id="node2" class="node"><title>q28</title>
<ellipse fill="none" stroke="black" cx="66.6978" cy="-28.6978" rx="24.8692" ry="24.8692"/>
<ellipse fill="none" stroke="black" cx="66.6978" cy="-28.6978" rx="28.897" ry="28.897"/>
<text text-anchor="middle" x="66.6978" y="-24.9978" font-family="Times,serif" font-size="14.00">q28</text>
</g>
<!-- q1 -->
<g id="node4" class="node"><title>q1</title>
<ellipse fill="none" stroke="black" cx="29.6978" cy="-2077.55" rx="20.2975" ry="20.2975"/>
<text text-anchor="middle" x="29.6978" y="-2073.85" font-family="Times,serif" font-size="14.00">q1</text>
</g>
<!-- q0&#45;&gt;q1 -->
<g id="edge2" class="edge"><title>q0&#45;&gt;q1</title>
<path fill="none" stroke="black" d="M52.689,-2149.35C48.684,-2137.02 43.3445,-2120.57 38.8193,-2106.64"/>
<polygon fill="black" stroke="black" points="42.1167,-2105.46 35.6989,-2097.03 35.4589,-2107.62 42.1167,-2105.46"/>
<text text-anchor="middle" x="50.1978" y="-2119.5" font-family="Times,serif" font-size="14.00">ε</text>
</g>
<!-- q7 -->
<g id="node5" class="node"><title>q7</title>
<ellipse fill="none" stroke="black" cx="89.6978" cy="-2077.55" rx="20.2975" ry="20.2975"/>
<text text-anchor="middle" x="89.6978" y="-2073.85" font-family="Times,serif" font-size="14.00">q7</text>
</g>
<!-- q0&#45;&gt;q7 -->
<g id="edge3" class="edge"><title>q0&#45;&gt;q7</title>
<path fill="none" stroke="black" d="M65.121,-2149.35C69.4308,-2136.93 75.1861,-2120.36 80.0438,-2106.36"/>
<polygon fill="black" stroke="black" points="83.4157,-2107.32 83.3889,-2096.73 76.8028,-2105.03 83.4157,-2107.32"/>
<text text-anchor="middle" x="81.1978" y="-2119.5" font-family="Times,serif" font-size="14.00">ε</text>
</g>
<!-- q2 -->
<g id="node6" class="node"><title>q2</title>
<ellipse fill="none" stroke="black" cx="28.6978" cy="-1986.26" rx="20.2975" ry="20.2975"/>
<text text-anchor="middle" x="28.6978" y="-1982.56" font-family="Times,serif" font-size="14.00">q2</text>
</g>
<!-- q1&#45;&gt;q2 -->
<g id="edge4" class="edge"><title>q1&#45;&gt;q2</title>
<path fill="none" stroke="black" d="M29.4808,-2057.18C29.3485,-2045.36 29.1767,-2030.02 29.0277,-2016.72"/>
<polygon fill="black" stroke="black" points="32.5262,-2016.56 28.9144,-2006.6 25.5267,-2016.63 32.5262,-2016.56"/>
<text text-anchor="middle" x="33.1978" y="-2028.21" font-family="Times,serif" font-size="14.00">4</text>
</g>
<!-- q8 -->
<g id="node12" class="node"><title>q8</title>
<ellipse fill="none" stroke="black" cx="90.6978" cy="-1986.26" rx="20.2975" ry="20.2975"/>
<text text-anchor="middle" x="90.6978" y="-1982.56" font-family="Times,serif" font-size="14.00">q8</text>
</g>
<!-- q7&#45;&gt;q8 -->
<g id="edge10" class="edge"><title>q7&#45;&gt;q8</title>
<path fill="none" stroke="black" d="M89.9148,-2057.18C90.0471,-2045.36 90.2189,-2030.02 90.3679,-2016.72"/>
<polygon fill="black" stroke="black" points="93.869,-2016.63 90.4812,-2006.6 86.8694,-2016.56 93.869,-2016.63"/>
<text text-anchor="middle" x="93.1978" y="-2028.21" font-family="Times,serif" font-size="14.00">3</text>
</g>
<!-- q3 -->
<g id="node7" class="node"><title>q3</title>
<ellipse fill="none" stroke="black" cx="28.6978" cy="-1894.96" rx="20.2975" ry="20.2975"/>
<text text-anchor="middle" x="28.6978" y="-1891.26" font-family="Times,serif" font-size="14.00">q3</text>
</g>
<!-- q2&#45;&gt;q3 -->
<g id="edge5" class="edge"><title>q2&#45;&gt;q3</title>
<path fill="none" stroke="black" d="M28.6978,-1965.88C28.6978,-1954.06 28.6978,-1938.72 28.6978,-1925.42"/>
<polygon fill="black" stroke="black" points="32.1979,-1925.3 28.6978,-1915.3 25.1979,-1925.3 32.1979,-1925.3"/>
<text text-anchor="middle" x="32.1978" y="-1936.91" font-family="Times,serif" font-size="14.00">ε</text>
</g>
<!-- q4 -->
<g id="node8" class="node"><title>q4</title>
<ellipse fill="none" stroke="black" cx="28.6978" cy="-1799.12" rx="20.2975" ry="20.2975"/>
<text text-anchor="middle" x="28.6978" y="-1795.42" font-family="Times,serif" font-size="14.00">q4</text>
</g>
<!-- q3&#45;&gt;q4 -->
<g id="edge6" class="edge"><title>q3&#45;&gt;q4</title>
<path fill="none" stroke="black" d="M28.6978,-1874.52C28.6978,-1861.56 28.6978,-1844.28 28.6978,-1829.63"/>
<polygon fill="black" stroke="black" points="32.1979,-1829.54 28.6978,-1819.54 25.1979,-1829.54 32.1979,-1829.54"/>
<text text-anchor="middle" x="32.1978" y="-1845.61" font-family="Times,serif" font-size="14.00">ε</text>
</g>
<!-- q5 -->
<g id="node9" class="node"><title>q5</title>
<ellipse fill="none" stroke="black" cx="28.6978" cy="-1698.72" rx="20.2975" ry="20.2975"/>
<text text-anchor="middle" x="28.6978" y="-1695.02" font-family="Times,serif" font-size="14.00">q5</text>
</g>
<!-- q4&#45;&gt;q5 -->
<g id="edge7" class="edge"><title>q4&#45;&gt;q5</title>
<path fill="none" stroke="black" d="M28.6978,-1778.68C28.6978,-1764.66 28.6978,-1745.48 28.6978,-1729.54"/>
<polygon fill="black" stroke="black" points="32.1979,-1729.12 28.6978,-1719.12 25.1979,-1729.12 32.1979,-1729.12"/>
<text text-anchor="middle" x="32.1978" y="-1745.22" font-family="Times,serif" font-size="14.00">5</text>
</g>
<!-- q6 -->
<g id="node10" class="node"><title>q6</title>
<ellipse fill="none" stroke="black" cx="63.6978" cy="-1602.87" rx="20.2975" ry="20.2975"/>
<text text-anchor="middle" x="63.6978" y="-1599.17" font-family="Times,serif" font-size="14.00">q6</text>
</g>
<!-- q5&#45;&gt;q6 -->
<g id="edge8" class="edge"><title>q5&#45;&gt;q6</title>
<path fill="none" stroke="black" d="M35.4462,-1679.63C40.5302,-1665.99 47.5909,-1647.06 53.3817,-1631.53"/>
<polygon fill="black" stroke="black" points="56.7551,-1632.51 56.9702,-1621.91 50.1964,-1630.06 56.7551,-1632.51"/>
<text text-anchor="middle" x="53.1978" y="-1644.82" font-family="Times,serif" font-size="14.00">ε</text>
</g>
<!-- q12 -->
<g id="node11" class="node"><title>q12</title>
<ellipse fill="none" stroke="black" cx="63.6978" cy="-1507.03" rx="24.8972" ry="24.8972"/>
<text text-anchor="middle" x="63.6978" y="-1503.33" font-family="Times,serif" font-size="14.00">q12</text>
</g>
<!-- q6&#45;&gt;q12 -->
<g id="edge9" class="edge"><title>q6&#45;&gt;q12</title>
<path fill="none" stroke="black" d="M63.6978,-1582.43C63.6978,-1570.71 63.6978,-1555.45 63.6978,-1541.81"/>
<polygon fill="black" stroke="black" points="67.1979,-1541.78 63.6978,-1531.78 60.1979,-1541.78 67.1979,-1541.78"/>
<text text-anchor="middle" x="67.1978" y="-1553.53" font-family="Times,serif" font-size="14.00">ε</text>
</g>
<!-- q13 -->
<g id="node16" class="node"><title>q13</title>
<ellipse fill="none" stroke="black" cx="63.6978" cy="-1406.63" rx="24.8972" ry="24.8972"/>
<text text-anchor="middle" x="63.6978" y="-1402.93" font-family="Times,serif" font-size="14.00">q13</text>
</g>
<!-- q12&#45;&gt;q13 -->
<g id="edge15" class="edge"><title>q12&#45;&gt;q13</title>
<path fill="none" stroke="black" d="M63.6978,-1482.21C63.6978,-1470.09 63.6978,-1455.15 63.6978,-1441.82"/>
<polygon fill="black" stroke="black" points="67.1979,-1441.57 63.6978,-1431.57 60.1979,-1441.57 67.1979,-1441.57"/>
<text text-anchor="middle" x="67.1978" y="-1453.13" font-family="Times,serif" font-size="14.00">1</text>
</g>
<!-- q9 -->
<g id="node13" class="node"><title>q9</title>
<ellipse fill="none" stroke="black" cx="90.6978" cy="-1894.96" rx="20.2975" ry="20.2975"/>
<text text-anchor="middle" x="90.6978" y="-1891.26" font-family="Times,serif" font-size="14.00">q9</text>
</g>
<!-- q8&#45;&gt;q9 -->
<g id="edge11" class="edge"><title>q8&#45;&gt;q9</title>
<path fill="none" stroke="black" d="M90.6978,-1965.88C90.6978,-1954.06 90.6978,-1938.72 90.6978,-1925.42"/>
<polygon fill="black" stroke="black" points="94.1979,-1925.3 90.6978,-1915.3 87.1979,-1925.3 94.1979,-1925.3"/>
<text text-anchor="middle" x="94.1978" y="-1936.91" font-family="Times,serif" font-size="14.00">ε</text>
</g>
<!-- q10 -->
<g id="node14" class="node"><title>q10</title>
<ellipse fill="none" stroke="black" cx="91.6978" cy="-1799.12" rx="24.8972" ry="24.8972"/>
<text text-anchor="middle" x="91.6978" y="-1795.42" font-family="Times,serif" font-size="14.00">q10</text>
</g>
<!-- q9&#45;&gt;q10 -->
<g id="edge12" class="edge"><title>q9&#45;&gt;q10</title>
<path fill="none" stroke="black" d="M90.905,-1874.52C91.0299,-1862.79 91.1925,-1847.54 91.3378,-1833.9"/>
<polygon fill="black" stroke="black" points="94.8379,-1833.9 91.4448,-1823.86 87.8383,-1833.83 94.8379,-1833.9"/>
<text text-anchor="middle" x="94.1978" y="-1845.61" font-family="Times,serif" font-size="14.00">ε</text>
</g>
<!-- q11 -->
<g id="node15" class="node"><title>q11</title>
<ellipse fill="none" stroke="black" cx="91.6978" cy="-1698.72" rx="24.8972" ry="24.8972"/>
<text text-anchor="middle" x="91.6978" y="-1695.02" font-family="Times,serif" font-size="14.00">q11</text>
</g>
<!-- q10&#45;&gt;q11 -->
<g id="edge13" class="edge"><title>q10&#45;&gt;q11</title>
<path fill="none" stroke="black" d="M91.6978,-1774.3C91.6978,-1762.18 91.6978,-1747.23 91.6978,-1733.91"/>
<polygon fill="black" stroke="black" points="95.1979,-1733.66 91.6978,-1723.66 88.1979,-1733.66 95.1979,-1733.66"/>
<text text-anchor="middle" x="95.1978" y="-1745.22" font-family="Times,serif" font-size="14.00">8</text>
</g>
<!-- q11&#45;&gt;q6 -->
<g id="edge14" class="edge"><title>q11&#45;&gt;q6</title>
<path fill="none" stroke="black" d="M84.7765,-1674.52C80.9566,-1661.72 76.1826,-1645.72 72.1443,-1632.18"/>
<polygon fill="black" stroke="black" points="75.4407,-1630.99 69.2276,-1622.41 68.7329,-1632.99 75.4407,-1630.99"/>
<text text-anchor="middle" x="82.1978" y="-1644.82" font-family="Times,serif" font-size="14.00">ε</text>
</g>
<!-- q14 -->
<g id="node17" class="node"><title>q14</title>
<ellipse fill="none" stroke="black" cx="63.6978" cy="-1306.24" rx="24.8972" ry="24.8972"/>
<text text-anchor="middle" x="63.6978" y="-1302.54" font-family="Times,serif" font-size="14.00">q14</text>
</g>
<!-- q13&#45;&gt;q14 -->
<g id="edge16" class="edge"><title>q13&#45;&gt;q14</title>
<path fill="none" stroke="black" d="M63.6978,-1381.81C63.6978,-1369.7 63.6978,-1354.75 63.6978,-1341.43"/>
<polygon fill="black" stroke="black" points="67.1979,-1341.18 63.6978,-1331.18 60.1979,-1341.18 67.1979,-1341.18"/>
<text text-anchor="middle" x="67.1978" y="-1352.73" font-family="Times,serif" font-size="14.00">ε</text>
</g>
<!-- q15 -->
<g id="node18" class="node"><title>q15</title>
<ellipse fill="none" stroke="black" cx="26.6978" cy="-1205.84" rx="24.8972" ry="24.8972"/>
<text text-anchor="middle" x="26.6978" y="-1202.14" font-family="Times,serif" font-size="14.00">q15</text>
</g>
<!-- q14&#45;&gt;q15 -->
<g id="edge17" class="edge"><title>q14&#45;&gt;q15</title>
<path fill="none" stroke="black" d="M55.3019,-1282.91C50.382,-1269.83 44.0868,-1253.08 38.6553,-1238.64"/>
<polygon fill="black" stroke="black" points="41.8563,-1237.21 35.0605,-1229.08 35.3042,-1239.67 41.8563,-1237.21"/>
<text text-anchor="middle" x="51.1978" y="-1252.34" font-family="Times,serif" font-size="14.00">ε</text>
</g>
<!-- q21 -->
<g id="node19" class="node"><title>q21</title>
<ellipse fill="none" stroke="black" cx="84.6978" cy="-1138.45" rx="24.8972" ry="24.8972"/>
<text text-anchor="middle" x="84.6978" y="-1134.75" font-family="Times,serif" font-size="14.00">q21</text>
</g>
<!-- q14&#45;&gt;q21 -->
<g id="edge18" class="edge"><title>q14&#45;&gt;q21</title>
<path fill="none" stroke="black" d="M66.7066,-1281.48C70.2932,-1253.17 76.3132,-1205.64 80.3921,-1173.44"/>
<polygon fill="black" stroke="black" points="83.9102,-1173.52 81.6946,-1163.15 76.9656,-1172.64 83.9102,-1173.52"/>
<text text-anchor="middle" x="74.1978" y="-1252.34" font-family="Times,serif" font-size="14.00">ε</text>
</g>
<!-- q16 -->
<g id="node20" class="node"><title>q16</title>
<ellipse fill="none" stroke="black" cx="24.6978" cy="-1071.05" rx="24.8972" ry="24.8972"/>
<text text-anchor="middle" x="24.6978" y="-1067.35" font-family="Times,serif" font-size="14.00">q16</text>
</g>
<!-- q15&#45;&gt;q16 -->
<g id="edge19" class="edge"><title>q15&#45;&gt;q16</title>
<path fill="none" stroke="black" d="M26.3402,-1181.1C26.0265,-1160.27 25.5665,-1129.72 25.213,-1106.26"/>
<polygon fill="black" stroke="black" points="28.7093,-1105.98 25.059,-1096.03 21.7101,-1106.08 28.7093,-1105.98"/>
<text text-anchor="middle" x="30.1978" y="-1134.75" font-family="Times,serif" font-size="14.00">1</text>
</g>
<!-- q22 -->
<g id="node26" class="node"><title>q22</title>
<ellipse fill="none" stroke="black" cx="85.6978" cy="-1003.65" rx="24.8972" ry="24.8972"/>
<text text-anchor="middle" x="85.6978" y="-999.954" font-family="Times,serif" font-size="14.00">q22</text>
</g>
<!-- q21&#45;&gt;q22 -->
<g id="edge25" class="edge"><title>q21&#45;&gt;q22</title>
<path fill="none" stroke="black" d="M84.8766,-1113.7C85.0335,-1092.87 85.2635,-1062.33 85.4402,-1038.86"/>
<polygon fill="black" stroke="black" points="88.9417,-1038.66 85.5172,-1028.64 81.9419,-1038.61 88.9417,-1038.66"/>
<text text-anchor="middle" x="89.1978" y="-1067.35" font-family="Times,serif" font-size="14.00">0</text>
</g>
<!-- q17 -->
<g id="node21" class="node"><title>q17</title>
<ellipse fill="none" stroke="black" cx="24.6978" cy="-936.258" rx="24.8972" ry="24.8972"/>
<text text-anchor="middle" x="24.6978" y="-932.558" font-family="Times,serif" font-size="14.00">q17</text>
</g>
<!-- q16&#45;&gt;q17 -->
<g id="edge20" class="edge"><title>q16&#45;&gt;q17</title>
<path fill="none" stroke="black" d="M24.6978,-1046.31C24.6978,-1025.48 24.6978,-994.933 24.6978,-971.465"/>
<polygon fill="black" stroke="black" points="28.1979,-971.241 24.6978,-961.241 21.1979,-971.241 28.1979,-971.241"/>
<text text-anchor="middle" x="28.1978" y="-999.954" font-family="Times,serif" font-size="14.00">ε</text>
</g>
<!-- q18 -->
<g id="node22" class="node"><title>q18</title>
<ellipse fill="none" stroke="black" cx="24.6978" cy="-835.863" rx="24.8972" ry="24.8972"/>
<text text-anchor="middle" x="24.6978" y="-832.163" font-family="Times,serif" font-size="14.00">q18</text>
</g>
<!-- q17&#45;&gt;q18 -->
<g id="edge21" class="edge"><title>q17&#45;&gt;q18</title>
<path fill="none" stroke="black" d="M24.6978,-911.44C24.6978,-899.322 24.6978,-884.377 24.6978,-871.054"/>
<polygon fill="black" stroke="black" points="28.1979,-870.803 24.6978,-860.803 21.1979,-870.803 28.1979,-870.803"/>
<text text-anchor="middle" x="28.1978" y="-882.361" font-family="Times,serif" font-size="14.00">ε</text>
</g>
<!-- q19 -->
<g id="node23" class="node"><title>q19</title>
<ellipse fill="none" stroke="black" cx="30.6978" cy="-735.467" rx="24.8972" ry="24.8972"/>
<text text-anchor="middle" x="30.6978" y="-731.767" font-family="Times,serif" font-size="14.00">q19</text>
</g>
<!-- q18&#45;&gt;q19 -->
<g id="edge22" class="edge"><title>q18&#45;&gt;q19</title>
<path fill="none" stroke="black" d="M26.1502,-811.044C26.8891,-798.927 27.8005,-783.981 28.6129,-770.659"/>
<polygon fill="black" stroke="black" points="32.1227,-770.602 29.238,-760.408 25.1357,-770.176 32.1227,-770.602"/>
<text text-anchor="middle" x="32.1978" y="-781.965" font-family="Times,serif" font-size="14.00">2</text>
</g>
<!-- q20 -->
<g id="node24" class="node"><title>q20</title>
<ellipse fill="none" stroke="black" cx="66.6978" cy="-635.072" rx="24.8972" ry="24.8972"/>
<text text-anchor="middle" x="66.6978" y="-631.372" font-family="Times,serif" font-size="14.00">q20</text>
</g>
<!-- q19&#45;&gt;q20 -->
<g id="edge23" class="edge"><title>q19&#45;&gt;q20</title>
<path fill="none" stroke="black" d="M38.8668,-712.14C43.62,-699.148 49.6926,-682.55 54.9518,-668.176"/>
<polygon fill="black" stroke="black" points="58.2875,-669.245 58.4366,-658.651 51.7136,-666.84 58.2875,-669.245"/>
<text text-anchor="middle" x="55.1978" y="-681.569" font-family="Times,serif" font-size="14.00">ε</text>
</g>
<!-- q23 -->
<g id="node25" class="node"><title>q23</title>
<ellipse fill="none" stroke="black" cx="66.6978" cy="-534.676" rx="24.8972" ry="24.8972"/>
<text text-anchor="middle" x="66.6978" y="-530.976" font-family="Times,serif" font-size="14.00">q23</text>
</g>
<!-- q20&#45;&gt;q23 -->
<g id="edge24" class="edge"><title>q20&#45;&gt;q23</title>
<path fill="none" stroke="black" d="M66.6978,-610.253C66.6978,-598.135 66.6978,-583.19 66.6978,-569.867"/>
<polygon fill="black" stroke="black" points="70.1979,-569.616 66.6978,-559.616 63.1979,-569.616 70.1979,-569.616"/>
<text text-anchor="middle" x="70.1978" y="-581.174" font-family="Times,serif" font-size="14.00">ε</text>
</g>
<!-- q24 -->
<g id="node27" class="node"><title>q24</title>
<ellipse fill="none" stroke="black" cx="66.6978" cy="-434.28" rx="24.8972" ry="24.8972"/>
<text text-anchor="middle" x="66.6978" y="-430.58" font-family="Times,serif" font-size="14.00">q24</text>
</g>
<!-- q23&#45;&gt;q24 -->
<g id="edge27" class="edge"><title>q23&#45;&gt;q24</title>
<path fill="none" stroke="black" d="M66.6978,-509.857C66.6978,-497.74 66.6978,-482.794 66.6978,-469.472"/>
<polygon fill="black" stroke="black" points="70.1979,-469.221 66.6978,-459.221 63.1979,-469.221 70.1979,-469.221"/>
<text text-anchor="middle" x="70.1978" y="-480.778" font-family="Times,serif" font-size="14.00">6</text>
</g>
<!-- q22&#45;&gt;q20 -->
<g id="edge26" class="edge"><title>q22&#45;&gt;q20</title>
<path fill="none" stroke="black" d="M85.6978,-978.744C85.6978,-955.369 85.6978,-918.768 85.6978,-887.061 85.6978,-887.061 85.6978,-887.061 85.6978,-734.467 85.6978,-712.198 80.9481,-687.6 76.1982,-668.569"/>
<polygon fill="black" stroke="black" points="79.5837,-667.68 73.6648,-658.893 72.8119,-669.453 79.5837,-667.68"/>
<text text-anchor="middle" x="89.1978" y="-832.163" font-family="Times,serif" font-size="14.00">ε</text>
</g>
<!-- q25 -->
<g id="node28" class="node"><title>q25</title>
<ellipse fill="none" stroke="black" cx="66.6978" cy="-333.885" rx="24.8972" ry="24.8972"/>
<text text-anchor="middle" x="66.6978" y="-330.185" font-family="Times,serif" font-size="14.00">q25</text>
</g>
<!-- q24&#45;&gt;q25 -->
<g id="edge28" class="edge"><title>q24&#45;&gt;q25</title>
<path fill="none" stroke="black" d="M66.6978,-409.461C66.6978,-397.344 66.6978,-382.399 66.6978,-369.076"/>
<polygon fill="black" stroke="black" points="70.1979,-368.825 66.6978,-358.825 63.1979,-368.825 70.1979,-368.825"/>
<text text-anchor="middle" x="70.1978" y="-380.382" font-family="Times,serif" font-size="14.00">ε</text>
</g>
<!-- q26 -->
<g id="node29" class="node"><title>q26</title>
<ellipse fill="none" stroke="black" cx="66.6978" cy="-233.489" rx="24.8972" ry="24.8972"/>
<text text-anchor="middle" x="66.6978" y="-229.789" font-family="Times,serif" font-size="14.00">q26</text>
</g>
<!-- q25&#45;&gt;q26 -->
<g id="edge29" class="edge"><title>q25&#45;&gt;q26</title>
<path fill="none" stroke="black" d="M66.6978,-309.066C66.6978,-296.949 66.6978,-282.003 66.6978,-268.681"/>
<polygon fill="black" stroke="black" points="70.1979,-268.43 66.6978,-258.43 63.1979,-268.43 70.1979,-268.43"/>
<text text-anchor="middle" x="70.1978" y="-279.987" font-family="Times,serif" font-size="14.00">ε</text>
</g>
<!-- q27 -->
<g id="node30" class="node"><title>q27</title>
<ellipse fill="none" stroke="black" cx="66.6978" cy="-133.093" rx="24.8972" ry="24.8972"/>
<text text-anchor="middle" x="66.6978" y="-129.393" font-family="Times,serif" font-size="14.00">q27</text>
</g>
<!-- q26&#45;&gt;q27 -->
<g id="edge30" class="edge"><title>q26&#45;&gt;q27</title>
<path fill="none" stroke="black" d="M66.6978,-208.67C66.6978,-196.553 66.6978,-181.607 66.6978,-168.285"/>
<polygon fill="black" stroke="black" points="70.1979,-168.034 66.6978,-158.034 63.1979,-168.034 70.1979,-168.034"/>
<text text-anchor="middle" x="70.1978" y="-179.591" font-family="Times,serif" font-size="14.00">6</text>
</g>
<!-- q27&#45;&gt;q28 -->
<g id="edge31" class="edge"><title>q27&#45;&gt;q28</title>
<path fill="none" stroke="black" d="M66.6978,-108.344C66.6978,-96.2922 66.6978,-81.3588 66.6978,-67.7534"/>
<polygon fill="black" stroke="black" points="70.1979,-67.6778 66.6978,-57.6779 63.1979,-67.6779 70.1979,-67.6778"/>
<text text-anchor="middle" x="70.1978" y="-79.1956" font-family="Times,serif" font-size="14.00">ε</text>
</g>
</g>
</svg>
