<?xml version="1.0" encoding="UTF-8" standalone="no"?>
<!DOCTYPE svg PUBLIC "-//W3C//DTD SVG 1.1//EN"
 "http://www.w3.org/Graphics/SVG/1.1/DTD/svg11.dtd">
<!-- Generated by graphviz version 2.38.0 (20140413.2041)
 -->
<!-- Title: automaton Pages: 1 -->
<svg width="106pt" height="677pt"
 viewBox="0.00 0.00 106.30 677.07" xmlns="http://www.w3.org/2000/svg" xmlns:xlink="http://www.w3.org/1999/xlink">
<g id="graph0" class="graph" transform="scale(1 1) rotate(0) translate(4 673.075)">
<title>automaton</title>
<polygon fill="white" stroke="none" points="-4,4 -4,-673.075 102.296,-673.075 102.296,4 -4,4"/>
<!-- start -->
<g id="node1" class="node"><title>start</title>
<text text-anchor="middle" x="49.1482" y="-647.375" font-family="Times,serif" font-size="14.00">start</text>
</g>
<!-- q0 -->
<g id="node3" class="node"><title>q0</title>
<ellipse fill="none" stroke="black" cx="49.1482" cy="-575.927" rx="20.2975" ry="20.2975"/>
<text text-anchor="middle" x="49.1482" y="-572.227" font-family="Times,serif" font-size="14.00">q0</text>
</g>
<!-- start&#45;&gt;q0 -->
<g id="edge1" class="edge"><title>start&#45;&gt;q0</title>
<path fill="none" stroke="black" d="M49.1482,-632.74C49.1482,-624.845 49.1482,-615.278 49.1482,-606.311"/>
<polygon fill="black" stroke="black" points="52.6483,-606.196 49.1482,-596.196 45.6483,-606.196 52.6483,-606.196"/>
</g>
<!-- q6 -->
<g id="node2" class="node"><title>q6</title>
<ellipse fill="none" stroke="black" cx="52.1482" cy="-24.1482" rx="20.2726" ry="20.2726"/>
<ellipse fill="none" stroke="black" cx="52.1482" cy="-24.1482" rx="24.2973" ry="24.2973"/>
<text text-anchor="middle" x="52.1482" y="-20.4482" font-family="Times,serif" font-size="14.00">q6</text>
</g>
<!-- q1 -->
<g id="node4" class="node"><title>q1</title>
<ellipse fill="none" stroke="black" cx="49.1482" cy="-484.63" rx="20.2975" ry="20.2975"/>
<text text-anchor="middle" x="49.1482" y="-480.93" font-family="Times,serif" font-size="14.00">q1</text>
</g>
<!-- q0&#45;&gt;q1 -->
<g id="edge2" class="edge"><title>q0&#45;&gt;q1</title>
<path fill="none" stroke="black" d="M49.1482,-555.551C49.1482,-543.732 49.1482,-528.391 49.1482,-515.091"/>
<polygon fill="black" stroke="black" points="52.6483,-514.968 49.1482,-504.969 45.6483,-514.969 52.6483,-514.968"/>
<text text-anchor="middle" x="52.6482" y="-526.579" font-family="Times,serif" font-size="14.00">ε</text>
</g>
<!-- q2 -->
<g id="node5" class="node"><title>q2</title>
<ellipse fill="none" stroke="black" cx="49.1482" cy="-393.334" rx="20.2975" ry="20.2975"/>
<text text-anchor="middle" x="49.1482" y="-389.634" font-family="Times,serif" font-size="14.00">q2</text>
</g>
<!-- q1&#45;&gt;q2 -->
<g id="edge3" class="edge"><title>q1&#45;&gt;q2</title>
<path fill="none" stroke="black" d="M49.1482,-464.254C49.1482,-452.436 49.1482,-437.095 49.1482,-423.795"/>
<polygon fill="black" stroke="black" points="52.6483,-423.672 49.1482,-413.672 45.6483,-423.672 52.6483,-423.672"/>
<text text-anchor="middle" x="54.1482" y="-435.282" font-family="Times,serif" font-size="14.00">A</text>
</g>
<!-- q3 -->
<g id="node6" class="node"><title>q3</title>
<ellipse fill="none" stroke="black" cx="49.1482" cy="-302.037" rx="20.2975" ry="20.2975"/>
<text text-anchor="middle" x="49.1482" y="-298.337" font-family="Times,serif" font-size="14.00">q3</text>
</g>
<!-- q2&#45;&gt;q3 -->
<g id="edge4" class="edge"><title>q2&#45;&gt;q3</title>
<path fill="none" stroke="black" d="M49.1482,-372.958C49.1482,-361.139 49.1482,-345.798 49.1482,-332.498"/>
<polygon fill="black" stroke="black" points="52.6483,-332.376 49.1482,-322.376 45.6483,-332.376 52.6483,-332.376"/>
<text text-anchor="middle" x="52.6482" y="-343.986" font-family="Times,serif" font-size="14.00">ε</text>
</g>
<!-- q4 -->
<g id="node7" class="node"><title>q4</title>
<ellipse fill="none" stroke="black" cx="20.1482" cy="-210.741" rx="20.2975" ry="20.2975"/>
<text text-anchor="middle" x="20.1482" y="-207.041" font-family="Times,serif" font-size="14.00">q4</text>
</g>
<!-- q3&#45;&gt;q4 -->
<g id="edge5" class="edge"><title>q3&#45;&gt;q4</title>
<path fill="none" stroke="black" d="M43.1394,-282.535C39.1344,-270.203 33.7949,-253.762 29.2697,-239.828"/>
<polygon fill="black" stroke="black" points="32.5671,-238.65 26.1493,-230.22 25.9094,-240.812 32.5671,-238.65"/>
<text text-anchor="middle" x="40.6482" y="-252.689" font-family="Times,serif" font-size="14.00">ε</text>
</g>
<!-- q7 -->
<g id="node8" class="node"><title>q7</title>
<ellipse fill="none" stroke="black" cx="78.1482" cy="-210.741" rx="20.2975" ry="20.2975"/>
<text text-anchor="middle" x="78.1482" y="-207.041" font-family="Times,serif" font-size="14.00">q7</text>
</g>
<!-- q3&#45;&gt;q7 -->
<g id="edge6" class="edge"><title>q3&#45;&gt;q7</title>
<path fill="none" stroke="black" d="M55.157,-282.535C59.1621,-270.203 64.5015,-253.762 69.0267,-239.828"/>
<polygon fill="black" stroke="black" points="72.3871,-240.812 72.1471,-230.22 65.7294,-238.65 72.3871,-240.812"/>
<text text-anchor="middle" x="69.6482" y="-252.689" font-family="Times,serif" font-size="14.00">ε</text>
</g>
<!-- q5 -->
<g id="node9" class="node"><title>q5</title>
<ellipse fill="none" stroke="black" cx="20.1482" cy="-119.445" rx="20.2975" ry="20.2975"/>
<text text-anchor="middle" x="20.1482" y="-115.745" font-family="Times,serif" font-size="14.00">q5</text>
</g>
<!-- q4&#45;&gt;q5 -->
<g id="edge7" class="edge"><title>q4&#45;&gt;q5</title>
<path fill="none" stroke="black" d="M20.1482,-190.365C20.1482,-178.546 20.1482,-163.205 20.1482,-149.905"/>
<polygon fill="black" stroke="black" points="23.6483,-149.783 20.1482,-139.783 16.6483,-149.783 23.6483,-149.783"/>
<text text-anchor="middle" x="25.1482" y="-161.393" font-family="Times,serif" font-size="14.00">A</text>
</g>
<!-- q8 -->
<g id="node10" class="node"><title>q8</title>
<ellipse fill="none" stroke="black" cx="78.1482" cy="-119.445" rx="20.2975" ry="20.2975"/>
<text text-anchor="middle" x="78.1482" y="-115.745" font-family="Times,serif" font-size="14.00">q8</text>
</g>
<!-- q7&#45;&gt;q8 -->
<g id="edge9" class="edge"><title>q7&#45;&gt;q8</title>
<path fill="none" stroke="black" d="M78.1482,-190.365C78.1482,-178.546 78.1482,-163.205 78.1482,-149.905"/>
<polygon fill="black" stroke="black" points="81.6483,-149.783 78.1482,-139.783 74.6483,-149.783 81.6483,-149.783"/>
<text text-anchor="middle" x="83.1482" y="-161.393" font-family="Times,serif" font-size="14.00">B</text>
</g>
<!-- q5&#45;&gt;q6 -->
<g id="edge8" class="edge"><title>q5&#45;&gt;q6</title>
<path fill="none" stroke="black" d="M26.4704,-100.012C30.703,-87.6721 36.3828,-71.1123 41.3245,-56.705"/>
<polygon fill="black" stroke="black" points="44.667,-57.7476 44.6008,-47.1529 38.0456,-55.4764 44.667,-57.7476"/>
<text text-anchor="middle" x="41.6482" y="-70.0964" font-family="Times,serif" font-size="14.00">ε</text>
</g>
<!-- q8&#45;&gt;q6 -->
<g id="edge10" class="edge"><title>q8&#45;&gt;q6</title>
<path fill="none" stroke="black" d="M72.8867,-99.5647C69.5196,-87.4822 65.0634,-71.492 61.1449,-57.4313"/>
<polygon fill="black" stroke="black" points="64.4661,-56.3108 58.41,-47.6175 57.723,-58.19 64.4661,-56.3108"/>
<text text-anchor="middle" x="70.6482" y="-70.0964" font-family="Times,serif" font-size="14.00">ε</text>
</g>
</g>
</svg>
