<?xml version="1.0" encoding="UTF-8" standalone="no"?>
<!DOCTYPE svg PUBLIC "-//W3C//DTD SVG 1.1//EN"
 "http://www.w3.org/Graphics/SVG/1.1/DTD/svg11.dtd">
<!-- Generated by graphviz version 2.38.0 (20140413.2041)
 -->
<!-- Title: automaton Pages: 1 -->
<svg width="250pt" height="560pt"
 viewBox="0.00 0.00 250.00 560.00" xmlns="http://www.w3.org/2000/svg" xmlns:xlink="http://www.w3.org/1999/xlink">
<g id="graph0" class="graph" transform="scale(1 1) rotate(0) translate(4 556)">
<title>automaton</title>
<polygon fill="white" stroke="none" points="-4,4 -4,-556 246,-556 246,4 -4,4"/>
<!-- start -->
<g id="node1" class="node"><title>start</title>
<text text-anchor="middle" x="178" y="-530.3" font-family="Times,serif" font-size="14.00">start</text>
</g>
<!-- A -->
<g id="node3" class="node"><title>A</title>
<ellipse fill="none" stroke="black" cx="178" cy="-461" rx="18" ry="18"/>
<text text-anchor="middle" x="178" y="-457.3" font-family="Times,serif" font-size="14.00">A</text>
</g>
<!-- start&#45;&gt;A -->
<g id="edge1" class="edge"><title>start&#45;&gt;A</title>
<path fill="none" stroke="black" d="M178,-515.813C178,-507.789 178,-498.047 178,-489.069"/>
<polygon fill="black" stroke="black" points="181.5,-489.029 178,-479.029 174.5,-489.029 181.5,-489.029"/>
</g>
<!-- C -->
<g id="node2" class="node"><title>C</title>
<ellipse fill="none" stroke="black" cx="113" cy="-22" rx="18" ry="18"/>
<ellipse fill="none" stroke="black" cx="113" cy="-22" rx="22" ry="22"/>
<text text-anchor="middle" x="113" y="-18.3" font-family="Times,serif" font-size="14.00">C</text>
</g>
<!-- C&#45;&gt;C -->
<g id="edge7" class="edge"><title>C&#45;&gt;C</title>
<path fill="none" stroke="black" d="M133.581,-30.3702C143.845,-31.5284 153,-28.7383 153,-22 153,-17.6833 149.243,-14.9869 143.844,-13.9109"/>
<polygon fill="black" stroke="black" points="143.673,-10.405 133.581,-13.6298 143.481,-17.4024 143.673,-10.405"/>
<text text-anchor="middle" x="156.5" y="-18.3" font-family="Times,serif" font-size="14.00">1</text>
</g>
<!-- C&#45;&gt;A -->
<g id="edge6" class="edge"><title>C&#45;&gt;A</title>
<path fill="none" stroke="black" d="M92.0104,-28.9921C59.3316,-39.7556 0,-65.6765 0,-112 0,-375 0,-375 0,-375 0,-440.564 99.5544,-455.602 149.758,-459.018"/>
<polygon fill="black" stroke="black" points="149.77,-462.524 159.953,-459.598 150.168,-455.536 149.77,-462.524"/>
<text text-anchor="middle" x="3.5" y="-239.8" font-family="Times,serif" font-size="14.00">0</text>
</g>
<!-- B -->
<g id="node4" class="node"><title>B</title>
<ellipse fill="none" stroke="black" cx="224" cy="-374" rx="18" ry="18"/>
<text text-anchor="middle" x="224" y="-370.3" font-family="Times,serif" font-size="14.00">B</text>
</g>
<!-- A&#45;&gt;B -->
<g id="edge2" class="edge"><title>A&#45;&gt;B</title>
<path fill="none" stroke="black" d="M186.224,-444.804C193.092,-432.112 203.009,-413.787 210.959,-399.097"/>
<polygon fill="black" stroke="black" points="214.166,-400.525 215.847,-390.065 208.01,-397.194 214.166,-400.525"/>
<text text-anchor="middle" x="206.5" y="-413.8" font-family="Times,serif" font-size="14.00">0</text>
</g>
<!-- F -->
<g id="node5" class="node"><title>F</title>
<ellipse fill="none" stroke="black" cx="143" cy="-113" rx="18" ry="18"/>
<text text-anchor="middle" x="143" y="-109.3" font-family="Times,serif" font-size="14.00">F</text>
</g>
<!-- A&#45;&gt;F -->
<g id="edge3" class="edge"><title>A&#45;&gt;F</title>
<path fill="none" stroke="black" d="M178,-442.744C178,-425.57 178,-398.464 178,-375 178,-375 178,-375 178,-199 178,-176.854 167.716,-153.742 158.297,-137.218"/>
<polygon fill="black" stroke="black" points="161.091,-135.071 152.936,-128.307 155.093,-138.68 161.091,-135.071"/>
<text text-anchor="middle" x="181.5" y="-283.3" font-family="Times,serif" font-size="14.00">1</text>
</g>
<!-- B&#45;&gt;C -->
<g id="edge5" class="edge"><title>B&#45;&gt;C</title>
<path fill="none" stroke="black" d="M224,-355.744C224,-338.57 224,-311.464 224,-288 224,-288 224,-288 224,-112 224,-70.5882 176.392,-45.2458 143.533,-32.6865"/>
<polygon fill="black" stroke="black" points="144.473,-29.3044 133.878,-29.1955 142.092,-35.8873 144.473,-29.3044"/>
<text text-anchor="middle" x="227.5" y="-196.3" font-family="Times,serif" font-size="14.00">1</text>
</g>
<!-- G -->
<g id="node6" class="node"><title>G</title>
<ellipse fill="none" stroke="black" cx="96" cy="-287" rx="18" ry="18"/>
<text text-anchor="middle" x="96" y="-283.3" font-family="Times,serif" font-size="14.00">G</text>
</g>
<!-- B&#45;&gt;G -->
<g id="edge4" class="edge"><title>B&#45;&gt;G</title>
<path fill="none" stroke="black" d="M209.317,-363.249C187.348,-348.661 145.706,-321.008 119.482,-303.593"/>
<polygon fill="black" stroke="black" points="121.173,-300.515 110.906,-297.899 117.301,-306.346 121.173,-300.515"/>
<text text-anchor="middle" x="170.5" y="-326.8" font-family="Times,serif" font-size="14.00">0</text>
</g>
<!-- F&#45;&gt;C -->
<g id="edge10" class="edge"><title>F&#45;&gt;C</title>
<path fill="none" stroke="black" d="M137.498,-95.676C133.429,-83.6071 127.778,-66.8409 122.928,-52.4532"/>
<polygon fill="black" stroke="black" points="126.239,-51.3176 119.728,-42.9595 119.606,-53.5536 126.239,-51.3176"/>
<text text-anchor="middle" x="134.5" y="-65.8" font-family="Times,serif" font-size="14.00">0</text>
</g>
<!-- F&#45;&gt;G -->
<g id="edge11" class="edge"><title>F&#45;&gt;G</title>
<path fill="none" stroke="black" d="M138.861,-130.615C133.698,-151.182 124.509,-187.257 116,-218 112.179,-231.805 107.697,-247.116 103.946,-259.708"/>
<polygon fill="black" stroke="black" points="100.514,-258.97 100.998,-269.553 107.22,-260.978 100.514,-258.97"/>
<text text-anchor="middle" x="129.5" y="-196.3" font-family="Times,serif" font-size="14.00">1</text>
</g>
<!-- G&#45;&gt;G -->
<g id="edge12" class="edge"><title>G&#45;&gt;G</title>
<path fill="none" stroke="black" d="M112.664,-294.383C122.625,-296.023 132,-293.562 132,-287 132,-282.796 128.152,-280.275 122.768,-279.438"/>
<polygon fill="black" stroke="black" points="122.6,-275.94 112.664,-279.617 122.725,-282.939 122.6,-275.94"/>
<text text-anchor="middle" x="135.5" y="-283.3" font-family="Times,serif" font-size="14.00">0</text>
</g>
<!-- E -->
<g id="node7" class="node"><title>E</title>
<ellipse fill="none" stroke="black" cx="89" cy="-200" rx="18" ry="18"/>
<text text-anchor="middle" x="89" y="-196.3" font-family="Times,serif" font-size="14.00">E</text>
</g>
<!-- G&#45;&gt;E -->
<g id="edge13" class="edge"><title>G&#45;&gt;E</title>
<path fill="none" stroke="black" d="M94.5834,-268.799C93.6252,-257.163 92.3392,-241.548 91.243,-228.237"/>
<polygon fill="black" stroke="black" points="94.7235,-227.854 90.4144,-218.175 87.7471,-228.429 94.7235,-227.854"/>
<text text-anchor="middle" x="96.5" y="-239.8" font-family="Times,serif" font-size="14.00">1</text>
</g>
<!-- E&#45;&gt;F -->
<g id="edge9" class="edge"><title>E&#45;&gt;F</title>
<path fill="none" stroke="black" d="M98.4061,-184.194C106.614,-171.274 118.664,-152.307 128.169,-137.345"/>
<polygon fill="black" stroke="black" points="131.294,-138.954 133.702,-128.636 125.385,-135.2 131.294,-138.954"/>
<text text-anchor="middle" x="123.5" y="-152.8" font-family="Times,serif" font-size="14.00">1</text>
</g>
<!-- H -->
<g id="node8" class="node"><title>H</title>
<ellipse fill="none" stroke="black" cx="89" cy="-113" rx="18" ry="18"/>
<text text-anchor="middle" x="89" y="-109.3" font-family="Times,serif" font-size="14.00">H</text>
</g>
<!-- E&#45;&gt;H -->
<g id="edge8" class="edge"><title>E&#45;&gt;H</title>
<path fill="none" stroke="black" d="M89,-181.799C89,-170.163 89,-154.548 89,-141.237"/>
<polygon fill="black" stroke="black" points="92.5001,-141.175 89,-131.175 85.5001,-141.175 92.5001,-141.175"/>
<text text-anchor="middle" x="92.5" y="-152.8" font-family="Times,serif" font-size="14.00">0</text>
</g>
<!-- H&#45;&gt;C -->
<g id="edge15" class="edge"><title>H&#45;&gt;C</title>
<path fill="none" stroke="black" d="M93.2479,-95.3106C95.7471,-85.5809 98.9971,-73.0809 102,-62 102.759,-59.1991 103.559,-56.2882 104.367,-53.3756"/>
<polygon fill="black" stroke="black" points="107.772,-54.1964 107.098,-43.6231 101.031,-52.309 107.772,-54.1964"/>
<text text-anchor="middle" x="105.5" y="-65.8" font-family="Times,serif" font-size="14.00">1</text>
</g>
<!-- H&#45;&gt;G -->
<g id="edge14" class="edge"><title>H&#45;&gt;G</title>
<path fill="none" stroke="black" d="M78.9308,-128.008C65.9161,-147.869 45.939,-185.424 55,-218 59.6823,-234.834 69.7788,-251.668 78.7804,-264.375"/>
<polygon fill="black" stroke="black" points="75.999,-266.501 84.7573,-272.463 81.6285,-262.34 75.999,-266.501"/>
<text text-anchor="middle" x="58.5" y="-196.3" font-family="Times,serif" font-size="14.00">0</text>
</g>
</g>
</svg>
