<?xml version="1.0" encoding="UTF-8" standalone="no"?>
<!DOCTYPE svg PUBLIC "-//W3C//DTD SVG 1.1//EN"
 "http://www.w3.org/Graphics/SVG/1.1/DTD/svg11.dtd">
<!-- Generated by graphviz version 2.38.0 (20140413.2041)
 -->
<!-- Title: automaton Pages: 1 -->
<svg width="141pt" height="318pt"
 viewBox="0.00 0.00 140.75 317.99" xmlns="http://www.w3.org/2000/svg" xmlns:xlink="http://www.w3.org/1999/xlink">
<g id="graph0" class="graph" transform="scale(1 1) rotate(0) translate(4 313.992)">
<title>automaton</title>
<polygon fill="white" stroke="none" points="-4,4 -4,-313.992 136.748,-313.992 136.748,4 -4,4"/>
<!-- start -->
<g id="node1" class="node"><title>start</title>
<text text-anchor="middle" x="51.748" y="-288.292" font-family="Times,serif" font-size="14.00">start</text>
</g>
<!-- AE -->
<g id="node3" class="node"><title>AE</title>
<ellipse fill="none" stroke="black" cx="51.748" cy="-214.244" rx="22.9987" ry="22.9987"/>
<text text-anchor="middle" x="51.748" y="-210.544" font-family="Times,serif" font-size="14.00">AE</text>
</g>
<!-- start&#45;&gt;AE -->
<g id="edge1" class="edge"><title>start&#45;&gt;AE</title>
<path fill="none" stroke="black" d="M51.748,-273.804C51.748,-266.023 51.748,-256.562 51.748,-247.534"/>
<polygon fill="black" stroke="black" points="55.2481,-247.261 51.748,-237.262 48.2481,-247.262 55.2481,-247.261"/>
</g>
<!-- C -->
<g id="node2" class="node"><title>C</title>
<ellipse fill="none" stroke="black" cx="23.748" cy="-22" rx="18" ry="18"/>
<ellipse fill="none" stroke="black" cx="23.748" cy="-22" rx="22" ry="22"/>
<text text-anchor="middle" x="23.748" y="-18.3" font-family="Times,serif" font-size="14.00">C</text>
</g>
<!-- BH -->
<g id="node4" class="node"><title>BH</title>
<ellipse fill="none" stroke="black" cx="22.748" cy="-117.748" rx="22.9987" ry="22.9987"/>
<text text-anchor="middle" x="22.748" y="-114.048" font-family="Times,serif" font-size="14.00">BH</text>
</g>
<!-- AE&#45;&gt;BH -->
<g id="edge2" class="edge"><title>AE&#45;&gt;BH</title>
<path fill="none" stroke="black" d="M45.3119,-192.272C41.4448,-179.671 36.4556,-163.414 32.1523,-149.392"/>
<polygon fill="black" stroke="black" points="35.4459,-148.194 29.166,-139.661 28.754,-150.248 35.4459,-148.194"/>
<text text-anchor="middle" x="43.248" y="-162.296" font-family="Times,serif" font-size="14.00">0</text>
</g>
<!-- F -->
<g id="node5" class="node"><title>F</title>
<ellipse fill="none" stroke="black" cx="81.748" cy="-117.748" rx="18" ry="18"/>
<text text-anchor="middle" x="81.748" y="-114.048" font-family="Times,serif" font-size="14.00">F</text>
</g>
<!-- AE&#45;&gt;F -->
<g id="edge3" class="edge"><title>AE&#45;&gt;F</title>
<path fill="none" stroke="black" d="M58.406,-192.272C62.838,-178.312 68.6948,-159.864 73.4329,-144.939"/>
<polygon fill="black" stroke="black" points="76.813,-145.859 76.5031,-135.269 70.1412,-143.741 76.813,-145.859"/>
<text text-anchor="middle" x="72.248" y="-162.296" font-family="Times,serif" font-size="14.00">1</text>
</g>
<!-- BH&#45;&gt;C -->
<g id="edge5" class="edge"><title>BH&#45;&gt;C</title>
<path fill="none" stroke="black" d="M14.5226,-96.3118C11.3557,-86.0634 8.89318,-73.4298 10.748,-62 11.2464,-58.9289 11.952,-55.7727 12.7798,-52.6497"/>
<polygon fill="black" stroke="black" points="16.1745,-53.5163 15.7364,-42.9306 9.47746,-51.4791 16.1745,-53.5163"/>
<text text-anchor="middle" x="14.248" y="-65.8" font-family="Times,serif" font-size="14.00">1</text>
</g>
<!-- G -->
<g id="node6" class="node"><title>G</title>
<ellipse fill="none" stroke="black" cx="89.748" cy="-22" rx="18" ry="18"/>
<text text-anchor="middle" x="89.748" y="-18.3" font-family="Times,serif" font-size="14.00">G</text>
</g>
<!-- BH&#45;&gt;G -->
<g id="edge4" class="edge"><title>BH&#45;&gt;G</title>
<path fill="none" stroke="black" d="M26.7829,-95.1543C29.5048,-84.4996 33.8886,-71.8541 40.748,-62 47.4322,-52.3975 57.155,-43.9767 66.1808,-37.441"/>
<polygon fill="black" stroke="black" points="68.2043,-40.2975 74.4988,-31.7752 64.2636,-34.5121 68.2043,-40.2975"/>
<text text-anchor="middle" x="44.248" y="-65.8" font-family="Times,serif" font-size="14.00">0</text>
</g>
<!-- F&#45;&gt;C -->
<g id="edge7" class="edge"><title>F&#45;&gt;C</title>
<path fill="none" stroke="black" d="M72.6855,-102.1C64.0832,-88.1956 50.9445,-66.959 40.4462,-49.99"/>
<polygon fill="black" stroke="black" points="43.1687,-47.7382 34.931,-41.0756 37.2159,-51.4211 43.1687,-47.7382"/>
<text text-anchor="middle" x="60.248" y="-65.8" font-family="Times,serif" font-size="14.00">0</text>
</g>
<!-- F&#45;&gt;G -->
<g id="edge8" class="edge"><title>F&#45;&gt;G</title>
<path fill="none" stroke="black" d="M83.2153,-99.5532C84.3881,-85.8096 86.0544,-66.2833 87.4105,-50.3915"/>
<polygon fill="black" stroke="black" points="90.9269,-50.3472 88.29,-40.0858 83.9523,-49.752 90.9269,-50.3472"/>
<text text-anchor="middle" x="90.248" y="-65.8" font-family="Times,serif" font-size="14.00">1</text>
</g>
<!-- G&#45;&gt;G -->
<g id="edge6" class="edge"><title>G&#45;&gt;G</title>
<path fill="none" stroke="black" d="M106.038,-30.0164C116.137,-31.9495 125.748,-29.2773 125.748,-22 125.748,-17.338 121.804,-14.5659 116.314,-13.6838"/>
<polygon fill="black" stroke="black" points="115.932,-10.1933 106.038,-13.9836 116.136,-17.1903 115.932,-10.1933"/>
<text text-anchor="middle" x="129.248" y="-18.3" font-family="Times,serif" font-size="14.00">0</text>
</g>
</g>
</svg>
